<svg xmlns="http://www.w3.org/2000/svg" xmlns:xlink="http://www.w3.org/1999/xlink"><symbol id="favicon" viewBox="0 0 32 32"><path fill="#81B3D3" d="M0 0h32v32H0z"/><path d="M10.723 19.743c.023.023.034.045.034.067.023 0 .046.01.068.033.613.66 1.305 1.275 2.077 1.847.771.55 1.657.846 2.655.89.023 0 .046.011.068.033h.102c.023 0 .046.011.069.033h.374c.114-.022.216-.044.306-.066.364-.066.711-.2 1.022-.396.34-.198.601-.44.783-.725l.068-.132.068-.132c.045-.154.08-.297.102-.43a2.16 2.16 0 00.034-.362c0-.593-.272-1.088-.817-1.484a5.897 5.897 0 00-1.702-.957 5.066 5.066 0 00-.715-.197 9.509 9.509 0 00-.647-.165h-.068c-.023-.022-.045-.033-.068-.033a11.341 11.341 0 01-3.132-1.254c-.976-.593-1.645-1.44-2.009-2.54-.07-.23-.139-.46-.204-.692a7.682 7.682 0 01-.102-.759.94.94 0 01-.034-.23V11.3a4.3 4.3 0 01.102-.528c.07-.45.184-.89.34-1.32.16-.439.364-.835.613-1.187.726-1.165 1.657-2 2.792-2.506A8.92 8.92 0 0116.51 5c.295 0 .59.022.885.066.319.022.636.055.953.099.828.135 1.638.356 2.417.66.817.307 1.566.67 2.247 1.088l-1.872 4.057A13.172 13.172 0 0019.2 9.816a5.004 5.004 0 00-2.213-.495h-.272c-.522.066-1.01.297-1.464.692-.454.374-.68.781-.68 1.22v.199a.821.821 0 00.101.198c.046.154.125.296.239.429.113.131.238.252.374.362.25.198.613.385 1.09.561.476.154.975.308 1.497.462.431.11.851.22 1.26.33.409.088.749.176 1.021.264 1.271.44 2.224 1.176 2.86 2.21.635 1.01.964 2.088.987 3.232v.165c0 .132-.011.264-.034.396v.362a7.976 7.976 0 01-1.157 3.266 6.204 6.204 0 01-2.485 2.375c-.388.176-.786.33-1.192.461-.406.11-.814.209-1.226.297-.337.066-.678.11-1.02.132a7.706 7.706 0 01-.988.066h-.375c-1.361-.044-2.7-.33-4.017-.858A12.568 12.568 0 018 23.965l2.723-4.222z" fill="#fff"/></symbol><symbol id="fullscreen" viewBox="0 0 20 20"><path d="M0 0v6h3V3h3V0H0zM3 14H0v6h6v-3H3v-3zM17 0h-3v3h3v3h3V0h-3zM17 17h-3v3h6v-6h-3v3z"/></symbol><symbol id="htmlacademy-active" viewBox="0 0 27 35"><path opacity="0.3" d="M13.6 0h-.1L0 1.4v24.7l13.5 8 13.4-8V1.4L13.6 0zM25 12.1L13.5 5.3v-.1h-.1l-.1-.1v.1L1.9 12.1v-9l11.5-1.2L25 3.1v9zM13.4 6.8l11.5 6.7-4.5 2.6-7.1-4.2v1.4l5.9 3.5-.9.5-5-3v1.4l3.8 2.3-.8.5-3-1.8v1.4l1.9 1.1-1.8 1.1L2 13.6l11.4-6.8zM1.9 15.1l11.4 6.8v1l-7.9-4.7v1.4l8 4.8v1.1l-8-4.7v1.4l8 4.8 8.1-4.9v-5.2l3.4-2v10l-11.5 6.9L1.9 25v-9.9z" fill="#000"/></symbol><symbol id="htmlacademy-hover" viewBox="0 0 27 35"><path d="M13.6 0h-.1L0 1.4v24.7l13.5 8 13.4-8V1.4L13.6 0zM25 12.1L13.5 5.3v-.1h-.1l-.1-.1v.1L1.9 12.1v-9l11.5-1.2L25 3.1v9zM13.4 6.8l11.5 6.7-4.5 2.6-7.1-4.2v1.4l5.9 3.5-.9.5-5-3v1.4l3.8 2.3-.8.5-3-1.8v1.4l1.9 1.1-1.8 1.1L2 13.6l11.4-6.8zM1.9 15.1l11.4 6.8v1l-7.9-4.7v1.4l8 4.8v1.1l-8-4.7v1.4l8 4.8 8.1-4.9v-5.2l3.4-2v10l-11.5 6.9L1.9 25v-9.9z" fill="#81B3D2"/></symbol><symbol id="htmlacademy" viewBox="0 0 27 34"><path d="M14 0L0 1v25l14 8 13-8V1L14 0zm11 12L14 5h-1L2 12V3l11-1 12 1v9zM13 7l12 6-5 3-7-4v1l6 4h-1l-5-3v2l4 2h-1l-3-1v1l2 1-2 1-11-6 11-7zM2 15l11 7v1l-8-5v2l8 4v1l-8-4v1l8 5 9-5v-5l3-2v10l-12 7-11-7V15z" fill="#000"/></symbol><symbol id="icon-burger" viewBox="0 0 40 35"><path d="M38 23H2c-1.26 0-2 .795-2 2v2c0 1.205.74 2 2 2h1v1c0 2.882 2.165 5 5 5h24c2.887 0 5-2.17 5-5v-1h1c1.207 0 2-.742 2-2v-2c0-1.153-.74-2-2-2zm-2 7c0 1.991-2.005 3-4 3H8c-1.995 0-4-1.009-4-3v-1h32v1zm2-3c0 .367.367 1 0 1H2c-.367 0 0-.633 0-1v-2c0-.314-.367 0 0 0h36c.367 0 0-.367 0 0v2zM8 19l3 2 3-2 3 2 3-2 2 2 3-2 3 2 3-2 3 2 3-2-1-2-2 2-3-2-3 2-3-2-3 2-2-2-3 2-3-2-3 2-3-2-3 2-2-2-1 2 3 2 3-2zM37.976 16c0-.309.053-1.794 0-2-.372-8.026-7.578-14-16.988-14S3.372 5.974 3 14v2h34.976zM20.988 2c8.506 0 14.67 4.849 14.99 12H4.998c.373-7.151 7.484-12 15.99-12z" fill="#81B3D2"/><path d="M20 9a1 1 0 100-2 1 1 0 000 2zM16 6a1 1 0 100-2 1 1 0 000 2zM24 6a1 1 0 100-2 1 1 0 000 2z" fill="#81B3D2"/></symbol><symbol id="icon-cross-active" viewBox="0 0 23 22"><path opacity="0.3" d="M23 2.775L20.1 0l-8.6 8.225L2.9 0 0 2.775 8.6 11 0 19.225 2.9 22l8.6-8.225L20.1 22l2.9-2.775L14.4 11 23 2.775z" fill="#fff"/></symbol><symbol id="icon-cross-hover" viewBox="0 0 23 22"><path opacity="0.6" d="M23 2.775L20.1 0l-8.6 8.225L2.9 0 0 2.775 8.6 11 0 19.225 2.9 22l8.6-8.225L20.1 22l2.9-2.775L14.4 11 23 2.775z" fill="#fff"/></symbol><symbol id="icon-cross" viewBox="0 0 23 23"><path d="M22.2 2.8L19.4 0l-8.3 8.3L2.8 0 0 2.8l8.3 8.3L0 19.4l2.8 2.8 8.3-8.3 8.3 8.3 2.8-2.8-8.3-8.3 8.3-8.3z" fill="#fff"/></symbol><symbol id="icon-facebook" viewBox="0 0 9 19"><path d="M7 3h2V0H6C2.793.201 1.586 2.28 2 6H0v4h2v9h4v-9h3V6H6c0-1.005.483-2.698 1-3z" fill="#fff"/></symbol><symbol id="icon-gift" viewBox="0 0 32 38"><path d="M31 11.009H18c6.908-3.442 7.254-5.783 7-6.998-.559-1.974-2.867-2.81-5-2-2.794 1.064-3.238 5.012-4 7.998-.965-3.037-1.816-7.023-4-8.997-.61-.557-1.629-1.101-3-1-2.032.203-5.22 2.215-4 4.999 1.117 2.682 5.511 4.631 8 5.998H1c-.813 0-1 1.24-1 1.999v4.998c0 .81.238 2 1 2h1V38h29V20.006c.813 0 1-1.24 1-2v-4.998c0-.81-.238-2-1-2zM21 3.01c1.067-.152 2.848 1.038 3 2 .203 1.366-2.137 2.442-3 2.999-1.27.86-1.832 1.29-3 1.999.406-1.873.714-6.694 3-6.998zM10 8.01C8.883 7.25 6.95 5.68 7 4.01c.05-1.822 2.476-3.366 4-2 1.93 1.671 3.289 5.265 4 7.998-1.625-.81-3.375-.936-5-2zM13 36H3V20.007h10V36zm0-17.994H2v-4.998h11v4.998zm5 17.995h-4V13.008h4v22.993zm11 0H19V20.006h10V36zm1-17.995H19v-4.998h11v4.998z" fill="#81B3D2"/></symbol><symbol id="icon-house" viewBox="0 0 39 37"><path d="M15 33h8V21h-8v12zm7-1h-6V22h6v10z" fill="#81B3D2"/><path d="M38 20l1-1-5-5V0h-7v7l-8-7L0 19l1 1 4-4v20H3v1h33v-1h-2V16l4 4zM28 2h4v11l-4-5V2zm4 33H7V15L19 2l13 13v20z" fill="#81B3D2"/><path d="M16 14c0 2.22 1.832 4 4 4 2.22 0 4-1.78 4-4 0-2.22-1.78-4-4-4-2.22 0-4 1.78-4 4zm4-3c1.393 0 3 1.555 3 3 0 1.393-1.555 3-3 3-1.393 0-3-1.555-3-3 0-1.393 1.607-3 3-3zM11 21H9v2h2v-2zM14 21h-2v2h2v-2zM11 24H9v2h2v-2zM14 24h-2v2h2v-2zM27 21h-2v2h2v-2zM31 21h-2v2h2v-2zM27 24h-2v2h2v-2zM31 24h-2v2h2v-2z" fill="#81B3D2"/></symbol><symbol id="icon-menu-active" viewBox="0 0 23 22"><g opacity="0.3" fill="#81B3D2"><path d="M22.9 0H0v4h22.9V0zM22.9 9H0v4h22.9V9zM22.9 18H0v4h22.9v-4z"/></g></symbol><symbol id="icon-menu-hover" viewBox="0 0 23 22"><g opacity="0.6" fill="#81B3D2"><path d="M22.9 0H0v4h22.9V0zM22.9 9H0v4h22.9V9zM22.9 18H0v4h22.9v-4z"/></g></symbol><symbol id="icon-menu" viewBox="0 0 23 22"><path d="M23 0H0v4h23V0zM23 9H0v4h23V9zM23 18H0v4h23v-4z" fill="#81B3D2"/></symbol><symbol id="icon-twitter" viewBox="0 0 18 15"><path d="M12 .184c1.749-.501 2.383.085 3 .988.72-.201 2.28.2 3 0 0 .802-.589.786-1 .987.72.2 1 0 1 0-.206 1.003-1.383 1.674-2 1.974-.206 6.62-2.697 11.061-10 10.86H5c-.411 0-4.28-.57-5-1.974 2.366.2 4.177-.285 5-.987-1.029-.301-2.691-.555-3-2.962.411.1.28.1 1 0C1.766 8.267.897 7.327 1 5.12c.309.302.691.988 1 .988-.72-.2-2.131-3.432-1-4.936C2.954 2.977 5.297 4.92 9 5.12c.103-2.307 1.149-4.335 3-4.937z" fill="#fff"/></symbol><symbol id="icon-youtube" viewBox="0 0 20 14"><path d="M16.996 0H2.999C1.493 0 0 1.5 0 3v8c0 1.6 1.493 3 3 3h13.996c1.607 0 3-1.5 3-3V3c.1-1.5-1.393-3-3-3zM6.998 10V4l6.999 3-6.999 3z" fill="#fff"/></symbol><symbol id="intro-triangle" viewBox="0 0 320 57"><path d="M-190 24L-440 0v57h601L-190 0v24zm701 0V0L161 57h600V0L511 24z" fill="#fff"/></symbol><symbol id="like-icon-desktop" viewBox="0 0 23 21"><path d="M12.964 3.78l-.628 3.045-.627 2.625h9.096v2.205L17.773 18.9h-9.41V8.4l4.6-4.62zM2.09 10.5v8.4-8.4zM13.8 0L6.9 6.93c-.418.315-.627.84-.627 1.47v10.5c0 1.155.94 2.1 2.09 2.1h9.41c.836 0 1.568-.525 1.881-1.26l3.137-7.455c.104-.21.104-.525.104-.735v-2.1H23c0-1.155-.94-2.1-2.09-2.1h-6.587l1.045-4.83v-.315c0-.42-.209-.84-.418-1.155L13.8 0zM4.182 8.4H0V21h4.182V8.4z" fill="#fff"/></symbol><symbol id="like-icon-tablet" viewBox="0 0 23 21"><path opacity="0.3" d="M12.964 3.78l-.628 3.045-.627 2.625h9.096v2.205L17.773 18.9h-9.41V8.4l4.6-4.62zM2.09 10.5v8.4-8.4zM13.8 0L6.9 6.93c-.418.315-.627.84-.627 1.47v10.5c0 1.155.94 2.1 2.09 2.1h9.41c.836 0 1.568-.525 1.881-1.26l3.137-7.455c.104-.21.104-.525.104-.735v-2.1H23c0-1.155-.94-2.1-2.09-2.1h-6.587l1.045-4.83v-.315c0-.42-.209-.84-.418-1.155L13.8 0zM4.182 8.4H0V21h4.182V8.4z"/></symbol><symbol id="like-icon" viewBox="0 0 23 21"><path opacity="0.3" d="M12.964 3.78l-.628 3.045-.627 2.625h9.096v2.205L17.773 18.9h-9.41V8.4l4.6-4.62zM2.09 10.5v8.4-8.4zM13.8 0L6.9 6.93c-.418.315-.627.84-.627 1.47v10.5c0 1.155.94 2.1 2.09 2.1h9.41c.836 0 1.568-.525 1.881-1.26l3.137-7.455c.104-.21.104-.525.104-.735v-2.1H23c0-1.155-.94-2.1-2.09-2.1h-6.587l1.045-4.83v-.315c0-.42-.209-.84-.418-1.155L13.8 0zM4.182 8.4H0V21h4.182V8.4z" fill="#000"/></symbol><symbol id="logotype-desktop" viewBox="0 0 187 97"><path d="M186.6 0H0l80.5 90.5c7.1 7.9 18.6 7.9 25.7 0L186.6 0z" fill="#81B3D3"/><path d="M43.2.7l49.6 58.4 49.3-58L43.2.7z" fill="#23A9E1"/><path d="M122 17.3c-5.1 0-10.1.1-15.2.1 6-6.9 8.7-6.2 15.2-.1zM80.8 22.7h26.7c-2-1.2-6.7-7.1-9.3-4.9-.2.2-7.5-8.9-12.3-4.5-4.2 3.8-6.1-.5-10.9 2.5-5.3 3.6 3.2 5.7 5.8 6.9z" fill="#fff"/><path d="M93.1 0H42.2v22.5L92.8 84l.3-.4 50.7-60.4V0H93.1zM54.9 1.8h5.5V19l-5.5-6.5V1.8zm-.8 9.8l-5-5.9V1.8h5v9.8zm19.3-2.7l-5.7-7.1h5.7v7.1zm-6.6 3.8L61.2 1.8h5.6v10.9zm-5.7-9.3l5.5 10.7c-2.8 2.1-4.7 4-5.5 4.9V3.4zm6.5-.5l5.6 6.9c-1.1.6-2.2 1.3-3.1 1.9-.9.6-1.7 1.2-2.5 1.8V2.9zm6.6-.2L79 6.9c-1.7.7-3.3 1.5-4.8 2.3V2.7zm5.6 3.9l-5.4-4.8h6v4.6c-.3 0-.4.1-.6.2zm19.1-4.8h5l-5 2.4V1.8zm-5.8 0h4.4l-4.4 2.1V1.8zm-.9 2l-4.2-2h4.2v2zm-5.5.5l-5.1-2.5h5.1v2.5zm-5.6-1.9l4.7 2.3c-1.6.4-3.2.8-4.7 1.3V2.4zm6.4 0L90.9 4c-1.2.1-2.3.2-3.5.4v-2h.1zm10.4.1v1.9c-1.1-.2-2.2-.3-3.4-.4l3.4-1.5zm6.5-.1v3.7c-1.5-.5-3.1-1-4.8-1.4l4.8-2.3zm.7-.6h5.9l-5.4 4.8c-.2-.1-.3-.1-.5-.2V1.8zm13.6 0h5.6l-5.6 10.9V1.8zm-6.6 0h5.7l-5.7 7v-7zm-.8.9v6.5c-1.5-.8-3.1-1.6-4.8-2.3l4.8-4.2zm6.6.2v10.5c-.7-.5-1.5-1-2.3-1.6-1-.7-2.2-1.4-3.4-2.1l5.7-6.8zm6.4.5v15.2c-1.1-1-2.9-2.7-5.5-4.6l5.5-10.6zm.8 16V1.8h5.5v11.4l-5.5 6.2c.1.1 0 .1 0 0zm6.3-17.6h5v4.7l-5 5.8V1.8zm-83 0v2.9l-2.5-2.9h2.5zM61.2 20l.1.1s3.6-3.9 9.2-7.6C75.8 9 83.8 4.9 92.8 5c8.9 0 17.1 4.2 22.3 7.7 5.6 3.7 9.3 7.5 9.4 7.6l-3.9 4.5c-6.9.9-11.9 6.1-18.6 5-3.4-.6-3.5-2.5-4.5-4.5-.7-1.5-1.9-1.3-3.5-1.9-1.4-.6-2.3-1.7-5.2-1.1-2.5.6-2.8 4.5-6 4.3-1.7-.1-1.8-2.5-4.2-5.5-6.3-7.6-12.2-6.5-16.2.5l30.3 35.9L61.2 20zm75.9-14.5V1.8h3.2l-3.2 3.7z" fill="#491213"/><path d="M88.7 70.9l4.1-6.5 4 6.5-4 6.5-4.1-6.5z" fill="#23A9E1"/><path d="M65.5 32.3c.5.6.9 1.3.8 2.1-.1.6-.9 1.6-.3 1.8.7-.9 1.5-1.9 2.2-2.8-.6-.2-5.4-5.8-5.4-6.5-1.1.6-2.1 1.2-3.2 1.7.2.7 1.3 0 1.9 0 .8.1 1.4.6 2 1.2-1.7 1.4-5.9 5-6.4 5.1-.2 0-1.1-.6-1.1-.1 0 .3.9 1 1 1.2.7.9 1.5 1.8 2.2 2.7.6-.3-.1-.7.2-1.2.3-.4 4.9-4.3 6.1-5.2zM60.2 25.3c.4-.1.6.4 1-.1-.8-1-1.6-1.9-2.4-2.9-.4-.4-.8-.9-.7 0 .1.6-6.1 5.7-6.5 5.8-.5.2-.8-.4-1.1.1.7.9 1.5 1.7 2.2 2.6.2.3.5.6.7.9.3.3.2-.7.2-.6-.1-.5.5-.9.9-1.2 1.5-1.3 5.3-4.6 5.7-4.6zM51.4 24.4c-1.8.5-3.7-.2-4.2-2s.6-3.8 2.1-4.8c1.4-1 3.6-1 4.4.8.3.8.2 1.7-.1 2.5-.2.5-.6 1 .1 1.3.9-1.1 1.7-2.2 2.6-3.3-1.1-.6-1.5-1.7-2.3-2.6-.9-1.1-2.1-2.1-3.5-2.3-2.9-.4-5.6 2.6-5.8 5.2-.1 1.5.4 2.8 1.2 4 .8 1 1.9 1.6 2.4 2.8.3.1 2.7-1 3.3-1.3-.1-.1-.1-.2-.2-.3-.7.2 0 0 0 0zM90.7 60.8c-1.2-.8-4-4.7-4.6-5.3-.1-.1-.2-.3-.3-.4 0 0-.3.2-.2.2-.2.1.1.6-.1.9-.8 1.2-5.8 5-6 5.2-.6.4-1.2-.2-1.5.3.7.9 2.8 3.5 3 3.6.5.1.1-.8.2-1 .1-.4 2.6-2.4 3.5-3.2.3-.3.7.4.9.7.3.5.5 1 .3 1.6-.1.4-.7.9-.3 1.2.6-.7 2.4-2.8 2.6-3 .3-.3-.6 0-.5-.1-.4.2-.7.2-1.1 0-.1-.1-1.1-1.1-1-1.2.4-.4 1-1 1.5-1.1.9-.2 1.6 1.5 1.7 2.1.1.6.1 1.2-.1 1.8-.1.4-.5.7 0 .9.7-1 1.4-1.9 2.1-2.9.2-.2 0-.3-.1-.3-.1-.1.2 0 0 0zM80.5 56.6c2.2-1.9 2.5-5.1.8-7.3-1.9-2.5-5.4-3.1-7.8-1.1-2.2 1.9-2.5 5-.8 7.3 2 2.7 5.2 3 7.8 1.1 1.2-.9-.1.1 0 0zm-.5-4.7c-.6 1.5-2.2 3.1-3.7 3.7-1.8.7-3.1-.8-2.4-2.6.7-1.5 2.2-3.1 3.7-3.7 1.9-.7 3.1.9 2.4 2.6-.4.9.1-.2 0 0zM74.1 42c.5.1.9.5 1.3 0-.7-.9-1.5-1.8-2.2-2.6-.6.3 0 .5-.2 1-.2.4-2.6.8-3.2.9.2-.6.9-2.6 1.2-2.8.5-.4.9.4 1.3-.1l-2.7-3.3c-.3-.4-.6-1-1-.7 0 0 0 1.5-.1 1.7-.1.2-.9 3.6-1.9 4.5-.5.4-2.2 1.9-2.7 2.1-.5.2-.8-.6-1.2 0 .8 1 1.7 2 2.5 3 .1.1.6.9.8.9.5.1.1-.9.1-1.1.2-.4 2.5-2.7 3.5-2.9 1.2-.2 3-.7 4.5-.6.3.1-.4 0 0 0z" fill="#fff"/><path d="M67.8 22.9c-4-.2-2.4-4 .4-4.8 2.6-.8 8.1 1.7 9.8 3.4-2.8.9-6.4.7-9.4.9-.2-3.2-1-2.1-.8.5zM77.3 35.4c-8.6-.1-2.8-13.3.1-12.5 3.4 1.1 3 12.6-.1 12.5zM83.4 31.1c-.8 2.5-2.4 3-2.2-.1.2-3.5 2.5-2.7 4.9-4 2-1.1 3.1-5.2 6.6-2.8 1.6 1.1 3.4.2 3.9 1.8 0-.1-4.5 10.3-2 10.3-5 0-2.8-5.9-.9-9.9-1.8.9-4.8 6.7-2.4 7.6-1.3 1.7-5.2 3.9-7.2 2.3-1.5-1.1-.7-3.2-.7-5.2zM87.5 40.7c-3.5 1-8.1-1.2-2.5-2.3 3.5-.7 7.2.7 2.5 2.3.1 0-.1 0 0 0zM91.9 40.6c-.7-1.7.6-3.6 2.7-2.2 1.8 1.2-.9 3.1-2.7 2.2zM88.9 45.2c-2.4-.7-10.5-.6-5.2-2.8 1.7-.6 10.2.2 5.2 2.8zM99.4 48.5c-1.4-1.2-2.9-1.3-4.2 0-1.8-3.3-8.3-2.2-11.4-2.7 1.6 4.1 14.8 4.9 15.6 2.7zM97.5 51c-3.2-.1-6.7-.6-9.6.1 1.9.5 6.4 1.8 2.2 2.9 1.5 2.2 4 2 5.6.1-.7-.3-1-.7-1.6-1.1 1.6-.3 3.2-1.2 3.4-2zM101.1 47.1c-5.3-3.1-4-5.4.4-7.6 2.3-1.1 7.3-5.2 9.4-3.9-3.3 3.9-6.6 7.7-9.8 11.5z" fill="#DC6243"/><path d="M97.3 39.8c-4.5-4.6 6.7-4.2 8.5-5.8 1.3.4 10.8-8.3 13.1-7.7-1.7 1.9-5.2 8.1-7.8 8.1-2 0-4-.3-5.5 1.1-2.2 2.1-5.9 3.1-8.3 4.3z" fill="#F49774"/><path d="M98.8 34.2c-2.5 1.3-4.8-3.9-.5-3.4 2.8.3 5.7-.2 8.3.2-2 2.3-4.7 3.6-7.8 3.2z" fill="#F4B1A4"/><path d="M111.4 52.5c.2.6.3 1.3.2 2-.1.9-1 2.9-2.2 2.3-1.2-.6-2.2-1.7-3.2-2.6.8-.9 1.5-1.7 2.9-1.3.4.1.7 0 .3-.3-.4-.2-3.1-2-3.3-1.8-.3.3.5.9.2 1.5-.2.4-.6.8-.9 1.2-.7-.6-1.9-1.3-1.1-2.3.5-.7 1.3-1.2 2.1-1.3.6-.1 1.8.4 2-.2-1.1-.5-2.2-1-3.3-1.6.2.8-3.3 4.5-4.1 5.5-.1.1-.7.6-.7.8 0 .4.6.1.7.1.5-.2 6.8 5.1 7 5.5.1.3-.2.6 0 .7 0 0 .2.2.3.2.4-.5 4.5-6 5.4-6.2-.8-1.2-1.6-2.4-2.4-3.7-.6.3 0 1 .1 1.5zM105.2 59.2c-2.1-1.3-5.6 1.3-6.1 1.5-1 .5-1.8-.5-1.3-1.5.5-.8 1.4-1.2 2.3-1.3.3 0 1.3.2 1.5 0 .1-.2.2-.2 0-.3-.9-.6-1.7-1.2-2.6-1.7-.2 1.1-1.4 1.7-2.1 2.4-.8.9-1.5 1.9-1.5 3.2 0 1.1.7 2.1 1.7 2.7 1.1.6 2.3.1 3.3-.5.6-.4 1.3-.9 1.9-1.2 1-.5 2.3-.1 2 1.3-.3 1.1-1.4 2.1-2.4 2.3-.6.2-1.3.1-1.9-.1-.4-.1-1-.7-1.2-.1 1.2.8 2.3 1.7 3.5 2.5.1-.8.5-1.1 1.1-1.6.7-.6 1.4-1.3 2-2.1 1.2-1.7 1.6-4.1-.2-5.5zM105.2 59.2c1 .6-.6-.5 0 0zM141.9 19.6c-.7.7-8.4-2.3-9-2.8-.3-.1-.3-1.3-.7-.8l-1.2 1.5c-.4.5-.8 1-1.3 1.5-.3.3-.5.5 0 .7.8-.4 5.4 7.3 5 8.5-.7.4-6.9-5.1-7.1-5.4-.1-.1.3-1-.2-.9-.2 0-.7.9-.9 1.1-.3.4-.6.7-.9 1.1.3.5.5 0 1 0 .4.1 1.8 1.3 2.2 1.7-.7 0-2.7.1-2.9.1-.9.1-.4-.7-1-.9-.8.9-1.5 1.8-2.3 2.8-.4.5-.9 1.1-1.3 1.6-.1.1 0 0 0 .1.3.3.1.2.6 0s6.6 4.9 6.8 5.2c.4.4-.2 1 .4 1.2.6-.7 1.2-1.5 1.8-2.2.1-.1.1-.1 0-.2-.4-.4-.5.2-1 .2-.5-.1-4.4-3.4-5.9-4.6 1.8-.1 7.3-.3 8.2-.3.3 0 1.1.9 1.1 1.2-.1.4-.5.6.1.8.5-.6 1-1.1 1.5-1.7l.2-.3c.1-.1.1-.1.2-.3l.2-.2c.4-.5 1.8-2 1.6-2.1-.5-.4-.7.5-1.3-.1-.3-.2-1.2-1.8-1.4-2.2-.3-.4.6-.9 1-1.1.8-.5 3.2-1.2 3.5.3 0 .3-.3.5-.1.7 0 0 .2.2.3.2.2-.2 2.4-2.8 3.3-4-.3-.2-.4-.3-.5-.4zm-7.4 2.2c.1 0 .2-.1 0 0-.3.2-.7.5-1 .8-.5-.9-1-1.8-1.6-2.7 1.2.5 2.4 1 3.5 1.5-.2.1-.5.2-.9.4zM124.8 33c-2.4-2-5.6-1.4-7.6.8-1.9 2.3-1.7 5.7.6 7.6 2.3 1.9 5.7 1.4 7.6-.8 1.9-2.3 1.8-5.7-.6-7.6zm-.3 6.6s0 .1 0 0c-1.3 1.3-3.4.1-4.5-.7-1.1-.8-3.1-2.6-1.9-4.1 1.1-1.3 3.1-.2 4.2.5 1.2.8 3.4 2.6 2.3 4.2l-.1.1z" fill="#fff"/><path d="M124.8 33c1.2 1-.3-.2 0 0zM124.5 39.7c0-.1 0-.1 0 0l.1-.1c-.1 0-.1.1-.1.1zM118.2 42.1c.1.1.3.3 0 0-2.9-2.2-6.3-1.6-8.5 1.1l-3 3.6c.4.5.8-.1 1.3.2.4.3 6.2 5.1 6.3 5.4.2.5-.3.5.1.9.2.1 4.5-5.2 4.9-6.2.9-1.8.3-3.7-1.1-5zm-1.3 6.8c-.2.3 0 .1-.7.7-.3.3-6.4-4.7-6.2-4.9.8-.9 2.6-1.6 3.6-1.3 2.2.5 5.2 3.2 3.3 5.5z" fill="#fff"/></symbol><symbol id="logotype-mobile" viewBox="0 0 102 84"><path d="M0 0l50.6 59.1L101.7 0H0z" fill="#23A9E1"/><path d="M50.9 0H0v22.5L50.6 84l.3-.4 50.7-60.4V0H50.9zm0 57.1l-.3.4L3.7 1.8h94.4L50.9 57.1z" fill="#491213"/><path d="M50.6 57.5l.3-.4 27.6-32.3c-6.9.9-11.9 6.1-18.6 5-3.4-.6-3.5-2.5-4.5-4.5-.7-1.5-1.9-1.3-3.5-1.9-1.4-.6-2.3-1.7-5.2-1.1-2.5.6-2.8 4.5-6 4.3-1.7-.1-1.8-2.5-4.2-5.5-6.3-7.6-12.2-6.5-16.2.5l30.3 35.9z" fill="#491213"/><path d="M23.3 32.2c.5.6.9 1.3.8 2.1-.1.6-.9 1.5-.3 1.8.7-.9 1.5-1.9 2.2-2.8-.6-.2-5.4-5.8-5.4-6.5-1.1.6-2.1 1.2-3.2 1.7.2.7 1.3 0 1.9 0 .8.1 1.4.6 2 1.2-1.7 1.4-5.9 5-6.4 5.1-.2 0-1.1-.6-1.1-.1 0 .3.9 1 1 1.2.7.9 1.5 1.8 2.2 2.7.6-.3-.1-.7.2-1.2.3-.3 4.9-4.2 6.1-5.2zM18 25.3c.4-.1.6.4 1-.1-.8-1-1.6-1.9-2.4-2.9-.4-.4-.8-.9-.7 0 .1.6-6.1 5.7-6.5 5.8-.5.2-.8-.4-1.1.1.7.9 1.5 1.7 2.2 2.6.2.3.5.6.7.9.3.3.2-.7.2-.6-.1-.5.5-.9.9-1.2 1.5-1.4 5.3-4.6 5.7-4.6zM9.2 24.4c-1.8.5-3.6-.2-4.2-2-.5-1.8.6-3.8 2.1-4.8 1.4-1 3.6-1 4.4.8.3.8.2 1.7-.1 2.5-.2.5-.6 1 .1 1.3.9-1.1 1.7-2.2 2.6-3.3-1.1-.6-1.5-1.7-2.3-2.6-.9-1.1-2.1-2.1-3.5-2.3-2.9-.4-5.6 2.6-5.8 5.2-.1 1.5.4 2.8 1.2 4 .8 1 1.9 1.6 2.4 2.8.3.1 2.7-1 3.3-1.3-.1-.1-.1-.3-.2-.3-.7.2 0 0 0 0zM48.5 60.8c-1.2-.8-4-4.7-4.6-5.3-.1-.1-.2-.3-.3-.4 0 0-.3.2-.2.2-.2.1.1.6-.1.9-.8 1.2-5.8 5-6 5.2-.6.4-1.2-.2-1.5.3.7.9 2.8 3.5 3 3.6.5.1.1-.8.2-1 .1-.4 2.6-2.4 3.5-3.2.3-.3.7.4.9.7.3.5.5 1 .3 1.6-.1.4-.7.9-.3 1.2.6-.7 2.4-2.8 2.6-3 .3-.3-.6 0-.5-.1-.4.2-.7.2-1.1 0-.1-.1-1.1-1.1-1-1.2.4-.4 1-1 1.5-1.1.9-.2 1.6 1.5 1.7 2.1.1.6.1 1.2-.1 1.8-.1.4-.5.7 0 .9.7-1 1.4-1.9 2.1-2.9.2-.2 0-.3-.1-.3-.1-.1.2 0 0 0zM38.3 56.6c2.2-1.9 2.5-5.1.8-7.3-1.9-2.5-5.4-3.1-7.8-1.1-2.2 1.9-2.5 5-.8 7.3 2 2.7 5.2 3 7.8 1.1 1.2-.9-.1.1 0 0zm-.5-4.7c-.6 1.5-2.2 3.1-3.7 3.7-1.8.7-3.1-.8-2.4-2.6.6-1.5 2.2-3.1 3.7-3.7 1.9-.7 3.1.9 2.4 2.6-.3.9.1-.2 0 0zM31.9 42c.5.1.9.6 1.3 0-.7-.9-1.5-1.8-2.2-2.6-.6.3 0 .5-.2 1-.2.4-2.6.8-3.2.9.2-.6.9-2.6 1.2-2.8.5-.4.9.4 1.3-.1l-2.7-3.3c-.3-.4-.6-1-1-.7 0 0 0 1.5-.1 1.7-.1.2-.9 3.6-1.9 4.5-.5.4-2.2 1.9-2.7 2.1-.5.2-.8-.6-1.2 0 .8 1 1.7 2 2.5 3 .1.1.6.9.8.9.5.1.1-.9.1-1.1.2-.4 2.5-2.7 3.5-2.9 1.2-.3 3-.8 4.5-.6.3.1-.4 0 0 0zM69.2 52.4c.2.6.3 1.3.2 2-.1.9-1 2.9-2.2 2.3C66 56.1 65 55 64 54.1c.8-.9 1.5-1.7 2.9-1.3.4.1.7 0 .3-.3-.4-.2-3.1-2-3.3-1.8-.3.3.5.9.2 1.5-.2.4-.6.8-.9 1.2-.7-.6-1.9-1.3-1.1-2.3.5-.7 1.3-1.2 2.1-1.3.6-.1 1.8.4 2-.2-1.1-.5-2.2-1-3.3-1.6.2.8-3.3 4.5-4.1 5.5-.1.1-.7.6-.7.8 0 .4.6.1.7.1.5-.2 6.8 5.1 7 5.5.1.3-.2.6 0 .7 0 0 .2.2.3.2.4-.5 4.5-6 5.4-6.2-.8-1.2-1.6-2.4-2.4-3.7-.6.4 0 1.1.1 1.5zM63 59.2c-2.1-1.3-5.6 1.3-6.1 1.5-1 .5-1.8-.5-1.3-1.5.5-.8 1.4-1.2 2.3-1.3.3 0 1.4.2 1.5 0 .1-.2.2-.2 0-.3-.9-.6-1.7-1.2-2.6-1.7-.2 1.1-1.4 1.7-2.1 2.4-.8.9-1.5 1.9-1.5 3.2 0 1.1.7 2.1 1.7 2.7 1.1.6 2.3.1 3.3-.5.6-.4 1.3-.9 1.9-1.2 1-.5 2.3-.1 2 1.3-.3 1.1-1.4 2.1-2.4 2.3-.6.2-1.3.1-1.9-.1-.4-.1-1-.7-1.2-.1 1.2.8 2.3 1.7 3.5 2.5.1-.8.5-1.1 1.1-1.6.7-.6 1.4-1.3 2-2.1 1.2-1.7 1.6-4.1-.2-5.5zM63 59.2c1 .5-.6-.5 0 0zM99.7 19.6c-.7.7-8.4-2.3-9-2.8-.3-.1-.3-1.3-.7-.8l-1.2 1.5c-.4.5-.8 1-1.3 1.5-.3.3-.5.5 0 .7.8-.4 5.4 7.3 5 8.5-.7.4-6.9-5.1-7.1-5.4-.1-.1.3-1-.2-.9-.2 0-.7.9-.9 1.1-.3.4-.6.7-.9 1.1.3.5.5 0 1 0 .4.1 1.8 1.3 2.2 1.7-.7 0-2.7.1-2.9.1-.9.1-.4-.7-1-.9-.8.9-1.5 1.8-2.3 2.8-.4.5-.9 1.1-1.3 1.6-.1.1 0 0 .1.1.3.3.1.2.6 0s6.6 4.9 6.8 5.2c.4.5-.2 1 .4 1.2.6-.7 1.2-1.5 1.8-2.2.1-.1.1-.1 0-.2-.4-.4-.5.2-1 .2-.5-.1-4.4-3.4-5.9-4.6 1.8-.1 7.3-.3 8.2-.3.3 0 1.1.9 1.1 1.2-.1.4-.5.6.1.8.5-.6 1-1.1 1.5-1.7l.2-.3c.1-.1.1-.1.2-.3l.2-.2c.4-.5 1.8-2 1.6-2.2-.5-.4-.7.5-1.3-.1-.3-.2-1.2-1.8-1.4-2.2-.3-.4.6-.9 1-1.1.8-.5 3.2-1.2 3.5.3 0 .3-.3.5-.1.7 0 0 .2.2.3.2.2-.2 2.4-2.8 3.3-4-.4-.1-.5-.2-.6-.3zm-7.4 2.2c.1-.1.2-.1 0 0-.3.2-.7.5-1 .8-.5-.9-1-1.8-1.6-2.7 1.2.5 2.4 1 3.5 1.5-.2 0-.5.2-.9.4zM82.6 33c-2.4-2-5.6-1.4-7.6.8-1.9 2.3-1.7 5.7.6 7.6 2.3 1.9 5.7 1.4 7.6-.8 1.9-2.3 1.8-5.7-.6-7.6zm-.3 6.6c-1.3 1.3-3.4.1-4.5-.7-1.1-.8-3.1-2.6-1.9-4.1 1.1-1.3 3.1-.2 4.2.5 1.2.8 3.4 2.6 2.3 4.2l-.1.1z" fill="#fff"/><path d="M82.6 33c1.2 1-.3-.2 0 0zM82.3 39.6l.1-.1-.1.1zM76 42.1c.1.1.3.2 0 0-2.9-2.2-6.3-1.6-8.5 1.1l-3 3.6c.4.5.8-.1 1.3.2.4.3 6.2 5.1 6.3 5.4.2.5-.3.5.1.9.2.1 4.5-5.2 4.9-6.2.9-1.8.3-3.8-1.1-5zm-1.3 6.8c-.2.3 0 .1-.7.7-.3.3-6.4-4.7-6.2-4.9.8-.9 2.6-1.6 3.6-1.3 2.2.4 5.2 3.1 3.3 5.5z" fill="#fff"/><path d="M50.6 57.5l.3-.4 27.6-32.3c-6.9.9-11.9 6.1-18.6 5-3.4-.6-3.5-2.5-4.5-4.5-.7-1.5-1.9-1.3-3.5-1.9-1.4-.6-2.3-1.7-5.2-1.1-2.5.6-2.8 4.5-6 4.3-1.7-.1-1.8-2.5-4.2-5.5-6.3-7.6-12.2-6.5-16.2.5l30.3 35.9z" fill="#491213"/><path d="M46.5 70.9l4.1-6.5 4 6.5-4 6.5-4.1-6.5z" fill="#23A9E1"/><path d="M23.3 32.3c.5.6.9 1.3.8 2.1-.1.6-.9 1.6-.3 1.8.7-.9 1.5-1.9 2.2-2.8-.6-.2-5.4-5.8-5.4-6.5-1.1.6-2.1 1.2-3.2 1.7.2.7 1.3 0 1.9 0 .8.1 1.4.6 2 1.2-1.7 1.4-5.9 5-6.4 5.1-.2 0-1.1-.6-1.1-.1 0 .3.9 1 1 1.2.7.9 1.5 1.8 2.2 2.7.6-.3-.1-.7.2-1.2.3-.4 4.9-4.3 6.1-5.2zM18 25.3c.4-.1.6.4 1-.1-.8-1-1.6-1.9-2.4-2.9-.4-.4-.8-.9-.7 0 .1.6-6.1 5.7-6.5 5.8-.5.2-.8-.4-1.1.1.7.9 1.5 1.7 2.2 2.6.2.3.5.6.7.9.3.3.2-.7.2-.6-.1-.5.5-.9.9-1.2 1.5-1.3 5.3-4.6 5.7-4.6zM9.2 24.4c-1.8.5-3.7-.2-4.2-2s.6-3.8 2.1-4.8c1.4-1 3.6-1 4.4.8.3.8.2 1.7-.1 2.5-.2.5-.6 1 .1 1.3.9-1.1 1.7-2.2 2.6-3.3-1.1-.6-1.5-1.7-2.3-2.6-.9-1.1-2.1-2.1-3.5-2.3-2.9-.4-5.6 2.6-5.8 5.2-.1 1.5.4 2.8 1.2 4 .8 1 1.9 1.6 2.4 2.8.3.1 2.7-1 3.3-1.3-.1-.1-.1-.2-.2-.3-.7.2 0 0 0 0zM48.5 60.8c-1.2-.8-4-4.7-4.6-5.3-.1-.1-.2-.3-.3-.4 0 0-.3.2-.2.2-.2.1.1.6-.1.9-.8 1.2-5.8 5-6 5.2-.6.4-1.2-.2-1.5.3.7.9 2.8 3.5 3 3.6.5.1.1-.8.2-1 .1-.4 2.6-2.4 3.5-3.2.3-.3.7.4.9.7.3.5.5 1 .3 1.6-.1.4-.7.9-.3 1.2.6-.7 2.4-2.8 2.6-3 .3-.3-.6 0-.5-.1-.4.2-.7.2-1.1 0-.1-.1-1.1-1.1-1-1.2.4-.4 1-1 1.5-1.1.9-.2 1.6 1.5 1.7 2.1.1.6.1 1.2-.1 1.8-.1.4-.5.7 0 .9.7-1 1.4-1.9 2.1-2.9.2-.2 0-.3-.1-.3-.1-.1.2 0 0 0zM38.3 56.6c2.2-1.9 2.5-5.1.8-7.3-1.9-2.5-5.4-3.1-7.8-1.1-2.2 1.9-2.5 5-.8 7.3 2 2.7 5.2 3 7.8 1.1 1.2-.9-.1.1 0 0zm-.5-4.7c-.6 1.5-2.2 3.1-3.7 3.7-1.8.7-3.1-.8-2.4-2.6.7-1.5 2.2-3.1 3.7-3.7 1.9-.7 3.1.9 2.4 2.6-.4.9.1-.2 0 0zM31.9 42c.5.1.9.5 1.3 0-.7-.9-1.5-1.8-2.2-2.6-.6.3 0 .5-.2 1-.2.4-2.6.8-3.2.9.2-.6.9-2.6 1.2-2.8.5-.4.9.4 1.3-.1l-2.7-3.3c-.3-.4-.6-1-1-.7 0 0 0 1.5-.1 1.7-.1.2-.9 3.6-1.9 4.5-.5.4-2.2 1.9-2.7 2.1-.5.2-.8-.6-1.2 0 .8 1 1.7 2 2.5 3 .1.1.6.9.8.9.5.1.1-.9.1-1.1.2-.4 2.5-2.7 3.5-2.9 1.2-.2 3-.7 4.5-.6.3.1-.4 0 0 0z" fill="#fff"/><path d="M25.6 22.9c-4-.2-2.4-4 .4-4.8 2.6-.8 8.1 1.7 9.8 3.4-2.8.9-6.4.7-9.4.9-.2-3.2-1-2.1-.8.5zM26.6 27.7c-2-1.6-1.4-5.3 1.8-4.1 4 2.1-.9 3.2-1.8 4.1zM35.1 35.4c-8.6-.1-2.8-13.3.1-12.5 3.4 1.1 3 12.6-.1 12.5zM41.2 31.1c-.8 2.5-2.4 3-2.2-.1.2-3.5 2.5-2.7 4.9-4 2-1.1 3.1-5.2 6.6-2.8 1.6 1.1 3.4.2 3.9 1.8 0-.1-4.5 10.3-2 10.3-5 0-2.8-5.9-.9-9.9-1.8.9-4.8 6.7-2.4 7.6-1.3 1.7-5.2 3.9-7.2 2.3-1.5-1.1-.7-3.2-.7-5.2zM45.3 40.7c-3.5 1-8.1-1.2-2.5-2.3 3.5-.7 7.2.7 2.5 2.3.1 0-.1 0 0 0zM49.7 40.6c-.7-1.7.6-3.6 2.7-2.2 1.8 1.2-.9 3.1-2.7 2.2zM46.7 45.2c-2.4-.7-10.5-.6-5.2-2.8 1.7-.6 10.2.2 5.2 2.8zM49.9 44.9c0-1-.5-2.7 1.4-1.9 2.2.8-1.4 2.6-1.4 1.9 0 0 0-.2 0 0zM57.2 48.5c-1.4-1.2-2.9-1.3-4.2 0-1.8-3.3-8.3-2.2-11.4-2.7 1.6 4.1 14.8 4.9 15.6 2.7zM55.3 51c-3.2-.1-6.7-.6-9.6.1 1.9.5 6.4 1.8 2.2 2.9 1.5 2.2 4 2 5.6.1-.7-.3-1-.7-1.6-1.1 1.6-.3 3.2-1.2 3.4-2zM58.9 47.1c-5.3-3.1-4-5.4.4-7.6 2.3-1.1 7.3-5.2 9.4-3.9-3.3 3.9-6.6 7.7-9.8 11.5z" fill="#DC6243"/><path d="M55.1 39.8c-4.5-4.6 6.7-4.2 8.5-5.8 1.3.4 10.8-8.3 13.1-7.7-1.7 1.9-5.2 8.1-7.8 8.1-2 0-4-.3-5.5 1.1-2.2 2.1-5.9 3.1-8.3 4.3z" fill="#F49774"/><path d="M56.6 34.2c-2.5 1.3-4.8-3.9-.5-3.4 2.8.3 5.7-.2 8.3.2-2 2.3-4.7 3.6-7.8 3.2z" fill="#F4B1A4"/><path d="M69.2 52.5c.2.6.3 1.3.2 2-.1.9-1 2.9-2.2 2.3-1.2-.6-2.2-1.7-3.2-2.6.8-.9 1.5-1.7 2.9-1.3.4.1.7 0 .3-.3-.4-.2-3.1-2-3.3-1.8-.3.3.5.9.2 1.5-.2.4-.6.8-.9 1.2-.7-.6-1.9-1.3-1.1-2.3.5-.7 1.3-1.2 2.1-1.3.6-.1 1.8.4 2-.2-1.1-.5-2.2-1-3.3-1.6.2.8-3.3 4.5-4.1 5.5-.1.1-.7.6-.7.8 0 .4.6.1.7.1.5-.2 6.8 5.1 7 5.5.1.3-.2.6 0 .7 0 0 .2.2.3.2.4-.5 4.5-6 5.4-6.2-.8-1.2-1.6-2.4-2.4-3.7-.6.3 0 1 .1 1.5zM63 59.2c-2.1-1.3-5.6 1.3-6.1 1.5-1 .5-1.8-.5-1.3-1.5.5-.8 1.4-1.2 2.3-1.3.3 0 1.3.2 1.5 0 .1-.2.2-.2 0-.3-.9-.6-1.7-1.2-2.6-1.7-.2 1.1-1.4 1.7-2.1 2.4-.8.9-1.5 1.9-1.5 3.2 0 1.1.7 2.1 1.7 2.7 1.1.6 2.3.1 3.3-.5.6-.4 1.3-.9 1.9-1.2 1-.5 2.3-.1 2 1.3-.3 1.1-1.4 2.1-2.4 2.3-.6.2-1.3.1-1.9-.1-.4-.1-1-.7-1.2-.1 1.2.8 2.3 1.7 3.5 2.5.1-.8.5-1.1 1.1-1.6.7-.6 1.4-1.3 2-2.1 1.2-1.7 1.6-4.1-.2-5.5zM63 59.2c1 .6-.6-.5 0 0zM99.7 19.6c-.7.7-8.4-2.3-9-2.8-.3-.1-.3-1.3-.7-.8l-1.2 1.5c-.4.5-.8 1-1.3 1.5-.3.3-.5.5 0 .7.8-.4 5.4 7.3 5 8.5-.7.4-6.9-5.1-7.1-5.4-.1-.1.3-1-.2-.9-.2 0-.7.9-.9 1.1-.3.4-.6.7-.9 1.1.3.5.5 0 1 0 .4.1 1.8 1.3 2.2 1.7-.7 0-2.7.1-2.9.1-.9.1-.4-.7-1-.9-.8.9-1.5 1.8-2.3 2.8-.4.5-.9 1.1-1.3 1.6-.1.1 0 0 0 .1.3.3.1.2.6 0s6.6 4.9 6.8 5.2c.4.4-.2 1 .4 1.2.6-.7 1.2-1.5 1.8-2.2.1-.1.1-.1 0-.2-.4-.4-.5.2-1 .2-.5-.1-4.4-3.4-5.9-4.6 1.8-.1 7.3-.3 8.2-.3.3 0 1.1.9 1.1 1.2-.1.4-.5.6.1.8.5-.6 1-1.1 1.5-1.7l.2-.3c.1-.1.1-.1.2-.3l.2-.2c.4-.5 1.8-2 1.6-2.1-.5-.4-.7.5-1.3-.1-.3-.2-1.2-1.8-1.4-2.2-.3-.4.6-.9 1-1.1.8-.5 3.2-1.2 3.5.3 0 .3-.3.5-.1.7 0 0 .2.2.3.2.2-.2 2.4-2.8 3.3-4-.3-.2-.4-.3-.5-.4zm-7.4 2.2c.1 0 .2-.1 0 0-.3.2-.7.5-1 .8-.5-.9-1-1.8-1.6-2.7 1.2.5 2.4 1 3.5 1.5-.2.1-.5.2-.9.4zM82.6 33c-2.4-2-5.6-1.4-7.6.8-1.9 2.3-1.7 5.7.6 7.6 2.3 1.9 5.7 1.4 7.6-.8 1.9-2.3 1.8-5.7-.6-7.6zm-.3 6.6s0 .1 0 0c-1.3 1.3-3.4.1-4.5-.7-1.1-.8-3.1-2.6-1.9-4.1 1.1-1.3 3.1-.2 4.2.5 1.2.8 3.4 2.6 2.3 4.2l-.1.1z" fill="#fff"/><path d="M82.6 33c1.2 1-.3-.2 0 0zM82.3 39.7c0-.1 0-.1 0 0l.1-.1c-.1 0-.1.1-.1.1zM76 42.1c.1.1.3.3 0 0-2.9-2.2-6.3-1.6-8.5 1.1l-3 3.6c.4.5.8-.1 1.3.2.4.3 6.2 5.1 6.3 5.4.2.5-.3.5.1.9.2.1 4.5-5.2 4.9-6.2.9-1.8.3-3.7-1.1-5zm-1.3 6.8c-.2.3 0 .1-.7.7-.3.3-6.4-4.7-6.2-4.9.8-.9 2.6-1.6 3.6-1.3 2.2.5 5.2 3.2 3.3 5.5z" fill="#fff"/></symbol><symbol id="logotype-tablet" viewBox="0 0 102 84"><path d="M1 .7l49.6 58.4 49.3-58L1 .7z" fill="#23A9E1"/><path d="M79.8 17.3c-5.1 0-10.1.1-15.2.1 6-6.9 8.7-6.2 15.2-.1zM38.6 22.7h26.7c-2-1.2-6.7-7.1-9.3-4.9-.2.2-7.5-8.9-12.3-4.5-4.2 3.8-6.1-.5-10.9 2.5-5.3 3.6 3.2 5.7 5.8 6.9z" fill="#fff"/><path d="M50.9 0H0v22.5L50.6 84l.3-.4 50.7-60.4V0H50.9zm0 57.1l-.3.4L3.7 1.8h94.4L50.9 57.1z" fill="#491213"/><path d="M50.6 57.5l.3-.4 27.6-32.3c-6.9.9-11.9 6.1-18.6 5-3.4-.6-3.5-2.5-4.5-4.5-.7-1.5-1.9-1.3-3.5-1.9-1.4-.6-2.3-1.7-5.2-1.1-2.5.6-2.8 4.5-6 4.3-1.7-.1-1.8-2.5-4.2-5.5-6.3-7.6-12.2-6.5-16.2.5l30.3 35.9z" fill="#491213"/><path d="M46.5 70.9l4.1-6.5 4 6.5-4 6.5-4.1-6.5z" fill="#23A9E1"/><path d="M23.3 32.3c.5.6.9 1.3.8 2.1-.1.6-.9 1.6-.3 1.8.7-.9 1.5-1.9 2.2-2.8-.6-.2-5.4-5.8-5.4-6.5-1.1.6-2.1 1.2-3.2 1.7.2.7 1.3 0 1.9 0 .8.1 1.4.6 2 1.2-1.7 1.4-5.9 5-6.4 5.1-.2 0-1.1-.6-1.1-.1 0 .3.9 1 1 1.2.7.9 1.5 1.8 2.2 2.7.6-.3-.1-.7.2-1.2.3-.4 4.9-4.3 6.1-5.2zM18 25.3c.4-.1.6.4 1-.1-.8-1-1.6-1.9-2.4-2.9-.4-.4-.8-.9-.7 0 .1.6-6.1 5.7-6.5 5.8-.5.2-.8-.4-1.1.1.7.9 1.5 1.7 2.2 2.6.2.3.5.6.7.9.3.3.2-.7.2-.6-.1-.5.5-.9.9-1.2 1.5-1.3 5.3-4.6 5.7-4.6zM9.2 24.4c-1.8.5-3.7-.2-4.2-2s.6-3.8 2.1-4.8c1.4-1 3.6-1 4.4.8.3.8.2 1.7-.1 2.5-.2.5-.6 1 .1 1.3.9-1.1 1.7-2.2 2.6-3.3-1.1-.6-1.5-1.7-2.3-2.6-.9-1.1-2.1-2.1-3.5-2.3-2.9-.4-5.6 2.6-5.8 5.2-.1 1.5.4 2.8 1.2 4 .8 1 1.9 1.6 2.4 2.8.3.1 2.7-1 3.3-1.3-.1-.1-.1-.2-.2-.3-.7.2 0 0 0 0zM48.5 60.8c-1.2-.8-4-4.7-4.6-5.3-.1-.1-.2-.3-.3-.4 0 0-.3.2-.2.2-.2.1.1.6-.1.9-.8 1.2-5.8 5-6 5.2-.6.4-1.2-.2-1.5.3.7.9 2.8 3.5 3 3.6.5.1.1-.8.2-1 .1-.4 2.6-2.4 3.5-3.2.3-.3.7.4.9.7.3.5.5 1 .3 1.6-.1.4-.7.9-.3 1.2.6-.7 2.4-2.8 2.6-3 .3-.3-.6 0-.5-.1-.4.2-.7.2-1.1 0-.1-.1-1.1-1.1-1-1.2.4-.4 1-1 1.5-1.1.9-.2 1.6 1.5 1.7 2.1.1.6.1 1.2-.1 1.8-.1.4-.5.7 0 .9.7-1 1.4-1.9 2.1-2.9.2-.2 0-.3-.1-.3-.1-.1.2 0 0 0zM38.3 56.6c2.2-1.9 2.5-5.1.8-7.3-1.9-2.5-5.4-3.1-7.8-1.1-2.2 1.9-2.5 5-.8 7.3 2 2.7 5.2 3 7.8 1.1 1.2-.9-.1.1 0 0zm-.5-4.7c-.6 1.5-2.2 3.1-3.7 3.7-1.8.7-3.1-.8-2.4-2.6.7-1.5 2.2-3.1 3.7-3.7 1.9-.7 3.1.9 2.4 2.6-.4.9.1-.2 0 0zM31.9 42c.5.1.9.5 1.3 0-.7-.9-1.5-1.8-2.2-2.6-.6.3 0 .5-.2 1-.2.4-2.6.8-3.2.9.2-.6.9-2.6 1.2-2.8.5-.4.9.4 1.3-.1l-2.7-3.3c-.3-.4-.6-1-1-.7 0 0 0 1.5-.1 1.7-.1.2-.9 3.6-1.9 4.5-.5.4-2.2 1.9-2.7 2.1-.5.2-.8-.6-1.2 0 .8 1 1.7 2 2.5 3 .1.1.6.9.8.9.5.1.1-.9.1-1.1.2-.4 2.5-2.7 3.5-2.9 1.2-.2 3-.7 4.5-.6.3.1-.4 0 0 0z" fill="#fff"/><path d="M25.6 22.9c-4-.2-2.4-4 .4-4.8 2.6-.8 8.1 1.7 9.8 3.4-2.8.9-6.4.7-9.4.9-.2-3.2-1-2.1-.8.5zM26.6 27.7c-2-1.6-1.4-5.3 1.8-4.1 4 2.1-.9 3.2-1.8 4.1zM35.1 35.4c-8.6-.1-2.8-13.3.1-12.5 3.4 1.1 3 12.6-.1 12.5zM41.2 31.1c-.8 2.5-2.4 3-2.2-.1.2-3.5 2.5-2.7 4.9-4 2-1.1 3.1-5.2 6.6-2.8 1.6 1.1 3.4.2 3.9 1.8 0-.1-4.5 10.3-2 10.3-5 0-2.8-5.9-.9-9.9-1.8.9-4.8 6.7-2.4 7.6-1.3 1.7-5.2 3.9-7.2 2.3-1.5-1.1-.7-3.2-.7-5.2zM45.3 40.7c-3.5 1-8.1-1.2-2.5-2.3 3.5-.7 7.2.7 2.5 2.3.1 0-.1 0 0 0zM49.7 40.6c-.7-1.7.6-3.6 2.7-2.2 1.8 1.2-.9 3.1-2.7 2.2zM46.7 45.2c-2.4-.7-10.5-.6-5.2-2.8 1.7-.6 10.2.2 5.2 2.8zM49.9 44.9c0-1-.5-2.7 1.4-1.9 2.2.8-1.4 2.6-1.4 1.9 0 0 0-.2 0 0zM57.2 48.5c-1.4-1.2-2.9-1.3-4.2 0-1.8-3.3-8.3-2.2-11.4-2.7 1.6 4.1 14.8 4.9 15.6 2.7zM55.3 51c-3.2-.1-6.7-.6-9.6.1 1.9.5 6.4 1.8 2.2 2.9 1.5 2.2 4 2 5.6.1-.7-.3-1-.7-1.6-1.1 1.6-.3 3.2-1.2 3.4-2zM58.9 47.1c-5.3-3.1-4-5.4.4-7.6 2.3-1.1 7.3-5.2 9.4-3.9-3.3 3.9-6.6 7.7-9.8 11.5z" fill="#DC6243"/><path d="M55.1 39.8c-4.5-4.6 6.7-4.2 8.5-5.8 1.3.4 10.8-8.3 13.1-7.7-1.7 1.9-5.2 8.1-7.8 8.1-2 0-4-.3-5.5 1.1-2.2 2.1-5.9 3.1-8.3 4.3z" fill="#F49774"/><path d="M56.6 34.2c-2.5 1.3-4.8-3.9-.5-3.4 2.8.3 5.7-.2 8.3.2-2 2.3-4.7 3.6-7.8 3.2z" fill="#F4B1A4"/><path d="M69.2 52.5c.2.6.3 1.3.2 2-.1.9-1 2.9-2.2 2.3-1.2-.6-2.2-1.7-3.2-2.6.8-.9 1.5-1.7 2.9-1.3.4.1.7 0 .3-.3-.4-.2-3.1-2-3.3-1.8-.3.3.5.9.2 1.5-.2.4-.6.8-.9 1.2-.7-.6-1.9-1.3-1.1-2.3.5-.7 1.3-1.2 2.1-1.3.6-.1 1.8.4 2-.2-1.1-.5-2.2-1-3.3-1.6.2.8-3.3 4.5-4.1 5.5-.1.1-.7.6-.7.8 0 .4.6.1.7.1.5-.2 6.8 5.1 7 5.5.1.3-.2.6 0 .7 0 0 .2.2.3.2.4-.5 4.5-6 5.4-6.2-.8-1.2-1.6-2.4-2.4-3.7-.6.3 0 1 .1 1.5zM63 59.2c-2.1-1.3-5.6 1.3-6.1 1.5-1 .5-1.8-.5-1.3-1.5.5-.8 1.4-1.2 2.3-1.3.3 0 1.3.2 1.5 0 .1-.2.2-.2 0-.3-.9-.6-1.7-1.2-2.6-1.7-.2 1.1-1.4 1.7-2.1 2.4-.8.9-1.5 1.9-1.5 3.2 0 1.1.7 2.1 1.7 2.7 1.1.6 2.3.1 3.3-.5.6-.4 1.3-.9 1.9-1.2 1-.5 2.3-.1 2 1.3-.3 1.1-1.4 2.1-2.4 2.3-.6.2-1.3.1-1.9-.1-.4-.1-1-.7-1.2-.1 1.2.8 2.3 1.7 3.5 2.5.1-.8.5-1.1 1.1-1.6.7-.6 1.4-1.3 2-2.1 1.2-1.7 1.6-4.1-.2-5.5zM63 59.2c1 .6-.6-.5 0 0zM99.7 19.6c-.7.7-8.4-2.3-9-2.8-.3-.1-.3-1.3-.7-.8l-1.2 1.5c-.4.5-.8 1-1.3 1.5-.3.3-.5.5 0 .7.8-.4 5.4 7.3 5 8.5-.7.4-6.9-5.1-7.1-5.4-.1-.1.3-1-.2-.9-.2 0-.7.9-.9 1.1-.3.4-.6.7-.9 1.1.3.5.5 0 1 0 .4.1 1.8 1.3 2.2 1.7-.7 0-2.7.1-2.9.1-.9.1-.4-.7-1-.9-.8.9-1.5 1.8-2.3 2.8-.4.5-.9 1.1-1.3 1.6-.1.1 0 0 0 .1.3.3.1.2.6 0s6.6 4.9 6.8 5.2c.4.4-.2 1 .4 1.2.6-.7 1.2-1.5 1.8-2.2.1-.1.1-.1 0-.2-.4-.4-.5.2-1 .2-.5-.1-4.4-3.4-5.9-4.6 1.8-.1 7.3-.3 8.2-.3.3 0 1.1.9 1.1 1.2-.1.4-.5.6.1.8.5-.6 1-1.1 1.5-1.7l.2-.3c.1-.1.1-.1.2-.3l.2-.2c.4-.5 1.8-2 1.6-2.1-.5-.4-.7.5-1.3-.1-.3-.2-1.2-1.8-1.4-2.2-.3-.4.6-.9 1-1.1.8-.5 3.2-1.2 3.5.3 0 .3-.3.5-.1.7 0 0 .2.2.3.2.2-.2 2.4-2.8 3.3-4-.3-.2-.4-.3-.5-.4zm-7.4 2.2c.1 0 .2-.1 0 0-.3.2-.7.5-1 .8-.5-.9-1-1.8-1.6-2.7 1.2.5 2.4 1 3.5 1.5-.2.1-.5.2-.9.4zM82.6 33c-2.4-2-5.6-1.4-7.6.8-1.9 2.3-1.7 5.7.6 7.6 2.3 1.9 5.7 1.4 7.6-.8 1.9-2.3 1.8-5.7-.6-7.6zm-.3 6.6s0 .1 0 0c-1.3 1.3-3.4.1-4.5-.7-1.1-.8-3.1-2.6-1.9-4.1 1.1-1.3 3.1-.2 4.2.5 1.2.8 3.4 2.6 2.3 4.2l-.1.1z" fill="#fff"/><path d="M82.6 33c1.2 1-.3-.2 0 0zM82.3 39.7c0-.1 0-.1 0 0l.1-.1c-.1 0-.1.1-.1.1zM76 42.1c.1.1.3.3 0 0-2.9-2.2-6.3-1.6-8.5 1.1l-3 3.6c.4.5.8-.1 1.3.2.4.3 6.2 5.1 6.3 5.4.2.5-.3.5.1.9.2.1 4.5-5.2 4.9-6.2.9-1.8.3-3.7-1.1-5zm-1.3 6.8c-.2.3 0 .1-.7.7-.3.3-6.4-4.7-6.2-4.9.8-.9 2.6-1.6 3.6-1.3 2.2.5 5.2 3.2 3.3 5.5z" fill="#fff"/></symbol><symbol id="mail" viewBox="0 0 16 12"><path d="M8 8c-.3 0-.5-.1-1-.3L0 4v7c0 .5.5 1 1 1h14c.5 0 1-.5 1-1V4L9 7.7c-.5.2-.7.3-1 .3zm7-8H1C.5 0 0 .5 0 1v.8L8 6l8-4.2V1c0-.5-.5-1-1-1z" fill="#000"/></symbol><symbol id="map-marker" viewBox="0 0 27 27"><path d="M13.5 27C20.956 27 27 20.956 27 13.5S20.956 0 13.5 0 0 6.044 0 13.5 6.044 27 13.5 27z" fill="#fff"/><path d="M13.5 21.9a8.4 8.4 0 100-16.8 8.4 8.4 0 000 16.8z" fill="#81B3D3"/></symbol><symbol id="phone" viewBox="0 0 18 18"><path d="M3.6 7.8c1.4 2.8 3.8 5.1 6.6 6.6l2.2-2.2c.3-.3.7-.4 1-.2 1.1.4 2.3.6 3.6.6.6 0 1 .4 1 1V17c0 .6-.4 1-1 1C7.6 18 0 10.4 0 1c0-.6.4-1 1-1h3.5c.6 0 1 .4 1 1 0 1.2.2 2.4.6 3.6.1.3 0 .7-.2 1L3.6 7.8z" fill="#010101"/></symbol><symbol id="replay" viewBox="0 0 16 20"><path d="M8 4V0L3 5l5 5V6c3.3 0 6 2.7 6 6s-2.7 6-6 6-6-2.7-6-6H0c0 4.4 3.6 8 8 8s8-3.6 8-8-3.6-8-8-8z"/></symbol><symbol id="shape" viewBox="0 0 22 22"><path d="M20.021 10.923c0-5.02-4.07-9.094-9.093-9.094-5.022 0-9.092 4.073-9.092 9.094a9.093 9.093 0 1018.185 0z" fill="#333" stroke="#333" stroke-width="3"/></symbol><symbol id="subtitles" viewBox="0 0 32 20"><path d="M29 0H3C1.3 0 0 1.3 0 3v14c0 1.7 1.3 3 3 3h26c1.7 0 3-1.3 3-3V3c0-1.7-1.3-3-3-3zM14.4 15.9c-.5.1-1.1.1-1.7.1-.7 0-1.4-.1-2-.3-.6-.2-1.2-.6-1.6-1-.4-.4-.8-1.1-1.1-1.9-.3-.8-.4-1.7-.4-2.8 0-1.1.2-2.1.5-2.9.3-.8.7-1.4 1.2-1.9s1.1-.8 1.7-1c.5-.1 1.2-.2 1.8-.2.7 0 1.2 0 1.7.1s.8.2 1.1.3l-.4 1.9-.9-.3H13c-.9 0-1.6.3-2.2 1-.6.7-.8 1.7-.8 3 0 .6.1 1.1.2 1.6s.3.9.6 1.3c.3.3.6.6 1 .8.4.2.9.3 1.4.3.5 0 .9 0 1.3-.1.3-.1.6-.2.9-.4l.5 1.8c-.5.3-1 .4-1.5.6zm8.7 0c-.5.1-1.1.1-1.7.1-.7 0-1.4-.1-2-.3-.6-.2-1.2-.6-1.6-1-.5-.5-.9-1.1-1.1-1.9-.3-.8-.4-1.7-.4-2.8 0-1.1.2-2.1.5-2.9.3-.8.7-1.4 1.2-1.9s1.1-.8 1.7-1c.5-.1 1.2-.2 1.8-.2.7 0 1.2 0 1.7.1s.8.2 1.1.3l-.4 1.9L23 6h-1.3c-.9 0-1.6.3-2.2 1-.6.7-.8 1.7-.8 3 0 .6.1 1.1.2 1.6s.3.9.6 1.3c.3.3.6.6 1 .8.4.2.9.3 1.4.3.5 0 .9 0 1.3-.1.3-.1.6-.2.9-.4l.5 1.8c-.5.3-1 .4-1.5.6z"/></symbol><symbol id="text-index" viewBox="0 0 282 214"><path d="M101.016 43c-.812.923-1.1 1-1.97 1l.985-3c1.043-1.907.639-3-.984-3-1.333 0-2.953.154-3.938 2l-.984 2v1c-1.275 1.538-3.184 3-3.938 3-.406 0-.406-.323 0-1l3.938-7h.984l.985-1h-1.97l1.97-3h-1.97l-1.968 3h-.985l-.984 1h1.969l-3.938 6c-.753 1.353.578 3 1.969 3 .985 0 1.91-.893 2.953-2 0 2.338 3.068 2.522 4.922 0 1.044 0 3.069.107 3.938-1 0-.308-.753-.877-.984-1zm-2.954 0c-.58 0-1.968.385-1.968 1 0 .246.868.815.984 1-.812 1.476-2.954.968-1.969-1l.985-2 .984-2c1.217-2.215 3.012-.907 1.969 1l-.985 2zM127.008 43c-1.333 1.54-2.684 3-3.957 3-1.09 0-1.777-.521-.989-2v-1c1.152.493 3.613.403 4.946-2 .969-1.725.526-3-.989-3-1.455 0-3.169.645-3.957 2l-.989 3h-.989c-1.333 1.54-2.179 3-2.967 3-.424 0-.424-.322 0-1l1.978-5c.788-1.417.041-2-.989-2-.788 0-1.069.014-1.978 1l2.967-5h-1.978l-4.946 9c-1.333 1.54-3.168 3-3.956 3-.424 0-.424-.322 0-1l3.956-7h.989l.989-1h-.989l.989-3h-1.978l-.989 3h-1.978l-.989 1h1.978l-3.956 6c-.788 1.355.524 3 1.978 3 .727 0 1.19-.384 1.978-1l-.989 1h1.978l2.967-5c2.788-3.574 3.695-3.355 2.968-2l-1.978 4c-.788 1.355-.466 3 .989 3 1.09 0 2.865-.891 3.956-2 .061 1.17.524 2 1.978 2 2.061 0 4.48-1.213 5.935-3 .06-.37-.747-.877-.989-1zm-2.968-3c1.031-1.848 3.069-.91 1.979 1-.849 1.479-2.301 1.246-2.968 1l.989-2zM194 42.972c-.678.79-1.261 1.444-2 1.992.616-1.764.829-4.6 2-6.972h-2c-.739 1.034-2.275 3.033-4 4.98-1.355 1.52-2.199 2.988-3 2.988-.431 0-1.431-.327-1-.996l4-6.972h-2l-3 5.976c-1.417 1.277-2.63 2.113-3 1.992-.431-.183.754-1.566 1-1.992l3-5.976h-2l-3 4.98c-.863.913-1.076 1.992-2 1.992l1-2.988c1.109-1.886.725-3.984-1-3.984-1.417 0-2.953.167-4 1.992l-1 1.992-1 .996c-1.355 1.52-2.706 2.988-4 2.988-1.109 0-1.801-.532-1-1.992v-.996c1.171.487 3.645.38 5-1.992.986-1.704.54-2.988-1-2.988-1.479 0-3.199.653-4 1.992l-2 2.988c-1.54 1.764-2.521 3.375-4 3.984l4-6.972h-1c0-.73-.891-1.992-2-1.992-.986 0-2.261.653-3 1.992l-2 2.988c-1.355 1.52-2.199 2.988-3 2.988-.431 0-1.431-.327-1-.996l2-2.988c.616-1.095.555-2.258 0-2.988l-1-.996c-.246-.304-.37-.692 0-.996L152 36c-1.047.913-.616 2.136 0 2.988-.801 1.156-1.768 2.585-3 3.984-.863.913-2.076 1.992-3 1.992l1-2.988c1.109-1.886.725-3.984-1-3.984-1.417 0-2.953.167-4 1.992l-1 1.992v.996h-1c-1.54 1.764-2.521 3.375-4 3.984l4-6.972h-1c0-.73-.891-1.992-2-1.992-.986 0-2.261.653-3 1.992l-2 4.98c-.801 1.338-.479 1.992 1 1.992.493 0 1.322.365 2 0h-1c-2.464.73-4 2.645-4 3.984 0 1.764 2.645 1.255 4-.996l1-1.992c1.479-.426 3.46-1.589 5-2.988 0 2.312 3.028 3.49 5 .996h1c1.109 0 2.076-.897 3-1.992.863-1.034 1.521-2.037 3-3.984h1c.246.304.185.63 0 .996l-2 3.984c-.801 1.338-.479 1.992 1 1.992.924 0 2.014-.144 3-.996 0 .852.953.996 2 .996.493 0 .322.365 1 0-2.464.73-4 1.65-4 2.988 0 1.764 2.645 2.25 4 0l1-1.992c1.479-.487 3.46-1.528 5-2.988.062 1.156.46 1.992 2 1.992 1.479 0 3.768-.897 5-1.992-.062 2.373 3.028 3.49 5 .996.555 0 1.322-.631 2-.996-.493 1.278-.047 1.992 1 1.992.986 0 2.137-1.14 3-1.992-.185.973.829 1.992 2 1.992 1.54 0 3.46-1.224 5-2.988 1.047-1.217 1.322-3.132 2-3.984-.739 1.886-.213 5.976-2 5.976-.616 0-1-.996-1-.996l-1 .996s.275.996 2 .996c.185 0 .815.06 1 0 1.91-.244 3.645-1.406 5-2.988-.062-.304-.692-.935-1-.996zm-26-2.988c1.047-1.825 3.109-.89 2 .996h-1c-.863 1.46-1.322 2.235-2 1.992l1-2.988zm-35 9.96c-.37.669-1 .547-1 0 0-.487.583-.449 2-.996l-1 .996zm1-3.984c-.431 0-1.431-.327-1-.996l3-4.98c.986-1.704 2.924-.647 2 .996l-1 1.992c-1.109 1.764-2.261 2.988-3 2.988zm11-2.988c-.616 0-1 .387-1 .996 0 .243-.123.813 0 .996-.863 1.46-3.047.95-2-.996l1-1.992 1-1.992c1.294-2.19 3.109-.89 2 .996l-1 1.992zm11 6.972c-.37.669-1 .547-1 0 0-.487.583-.449 2-.996l-1 .996zm1-3.984c-.431 0-.431-.327 0-.996l3-4.98c.986-1.704 2.924-.647 2 .996l-2 1.992c-1.109 1.764-2.261 2.988-3 2.988zm18-2.988c-.616 0-1 .387-1 .996 0 .243-.123.813 0 .996-.863 1.46-2.047.95-1-.996l1-1.992 1-1.992c1.294-2.19 3.109-.89 2 .996l-2 1.992zM80 41H62v1h18v-1zM219 41h-18v1h18v-1z" fill="#766458"/><path d="M100 0h5l-1 28h-9l-1-12-1 12h-9L83 0h5v23h1l3-23h4l3 23h1V0zM120 23v5h-13V0h13v5h-8v7h6v4h-6v7h8zM132 23v5h-11V0h5v23h6zM142 18l5-1v8c0 1.621-1.445 3-3 3h-7c-1.617 0-3-1.441-3-3V3c0-1.621 1.383-3 3-3h7c1.555 0 3 1.379 3 3v6l-5 1V5h-3v18h3v-5zM160 0c1.555 0 3 1.375 3 3v22c0 1.625-1.445 3-3 3h-7c-1.617 0-3-1.438-3-3V3c0-1.625 1.383-3 3-3h7zm-2 5h-3v18h3V5zM178 0h5v28h-5V14l-2 7h-4l-2-7v14h-5V0h5l4 14 4-14zM198 23v5h-13V0h13v5h-8v7h6v4h-6v7h8z" fill="#81B3D3"/><path d="M27 96c-2.217-1.832-5.044-3-8-3-2.217 0-5 1.435-5 4 0 2.687 3.967 3.389 6 4l3 1c6.406 1.893 11 4.611 11 12 0 4.519-1.366 9.947-5 13-3.634 3.053-8.38 4-13 4a28.026 28.026 0 01-16-5l5-10c3.018 2.626 6.873 5 11 5 2.833 0 5-1.824 5-5 0-3.359-4.413-4.267-7-5-7.514-2.198-12-4.145-12-13 0-9.282 6.76-15 16-15 4.62 0 9.935 1.68 14 4l-5 9zM56 95v8h13v10H56v8h14v10H44V85h26v10H56zM79 85h17c12.683 0 23 10.086 23 23s-10.378 23-23 23H79V85zm12 36h3c7.073 0 13-4.083 13-13 0-8.24-5.378-13-13-13h-3v26zM176 107c0 14.86-10.217 25-25 25s-26-10.14-26-25c0-13.877 12.757-24 26-24s25 10.123 25 24zm-39 0c0 7.921 5.855 13 13 13s13-5.079 13-13c0-6.325-5.855-12-13-12-7.083 0-13 5.675-13 12zM182 85h12l22 28V85h12v46h-12l-22-28v28h-12V85zM250 123l-3 8h-13l18-46h13l17 46h-13l-3-8h-16zm8-24l-5 15h10l-5-15zM65.885 176c4.832-1.609 5.713-8 1.007-8-1.318 0-2.962 1.205-4.029 3l-6.042 11c-.314.495-.63.567-1.007 1-1.632-2.228-1.315-5.515 1.007-7l-1.007-1c-5.02 3.156-3.311 12 5.035 12 7.091 0 9.617-7.967 5.036-11zm-6.043 9c-1.443 0-2.08-.505-3.021-1 .439-.495.63-.381 1.007-1l4.028-7h1.007c5.585 1.176 2.752 9-3.021 9zm3.021-11l2.014-3c1.758-2.971 4.214-1.228 3.022 1-.941 1.733-2.588 1.938-5.036 2z" fill="#fff"/><path d="M84.82 182.98c-.37 1.341.473 2.993 2.008 2.993.92 0 2.85-1.081 4.017-1.996.123.915.843 1.996 2.01 1.996 1.227 0 1.662-.777 3.013-1.996-.246 1.219.842 1.996 2.008 1.996 1.29 0 2.913-.959 4.018-1.996-.246 1.219.535 1.996 2.009 1.996 1.903 0 4.062-1.797 6.026-3.991v-.998c1.29-1.463 2.154-2.894 3.014-3.991-.921 2.377-.803 6.984-3.014 6.984-.798 0-1.004-.997-1.004-.997l-1.004.997s-.141 1.996 2.008 1.996c.246 0 .759.061 1.005 0 1.719-.244 3.548-1.713 5.022-2.993.061 1.523 1.11 2.993 3.013 2.993 2.64 0 5.128-1.797 7.031-3.991-.184-.305-.697-.876-1.004-.998-1.658 1.951-3.365 2.993-5.022 2.993-1.413 0-3.053-.167-2.009-1.995l1.004-.998c1.474.61 4.246.991 6.027-1.995v-.998c1.228-2.133-.106-3.991-2.009-3.991-1.904 0-3.035 1.287-4.018 2.993l-2.009 3.991h-1.004c-.86.975-2.092 1.386-3.013 1.996.736-2.194.535-5.057 2.008-7.982l-1.004-.998c-.982 1.341-2.934 4.546-5.022 6.984-1.658 1.951-3.978 2.993-5.022 2.993-.491 0-.553-.083 0-.997l5.022-8.98h-2.009l-4.018 7.982c-1.78 1.585-3.587 2.178-4.017 1.995-.553-.243-.307-1.507 0-1.995l5.022-6.984h-2.009l-4.018 5.986c-.061-.061.062.061 0 0-1.657 1.951-3.978 2.993-5.022 2.993-.49 0-.552-.083 0-.997l4.018-5.987h-2.009c.062-.975-.474-2.993-2.009-2.993-1.228 0-3.035 1.287-4.017 2.993l-2.01 3.991c-.122-.122-.88.061-1.004 0-1.657 1.951-3.364 2.993-5.022 2.993-1.412 0-2.048-.167-1.004-1.995l2.009-3.991c1.35-2.316 3.42-2.377 2.009 0v.998h2.008v-.998c1.229-2.133-.105-3.991-2.008-3.991-1.904 0-3.036 1.287-4.018 2.993l-2.009 3.991c-.061-.061-.943.061-1.004 0-1.658 1.951-3.364 3.991-5.022 3.991-1.413 0-2.049-1.165-1.005-2.993v-.998c1.474.61 4.246.991 6.027-1.995v-.998c1.228-2.133-.106-3.991-2.01-3.991-1.903 0-3.034 1.287-4.017 2.993l-2.008 3.991c-1.474 2.438-.755 4.989 2.008 4.989 2.027 0 4.369-1.409 6.027-2.993-.062 1.584 1.048 2.993 3.013 2.993 1.965-.122 3.364-1.592 5.022-2.993zm36.158-5.987c1.351-2.316 3.421-1.379 2.009.998v.998c-1.105 1.889-3.158 1.302-4.018.997l2.009-2.993zm-33.146 5.987l3.014-4.989c1.228-2.133 4.18-2.072 3.013 0l-2.009 2.993c-1.412 2.194-3.097 2.993-4.018 2.993-.49-.061-.552-.083 0-.997zm-15.066-5.987c1.351-2.316 3.421-1.379 2.009.998v.998c-1.105 1.889-2.154 1.302-3.013.997l1.004-2.993zM151.088 185c2.555 0 5.07-1.843 6.912-4-.178-.3-.69-.88-.987-1-1.605 1.918-3.333 4-4.938 4-1.366 0-2.985-1.202-1.975-3h.988c1.426.599 4.201-.064 5.925-3v-1c1.188-2.097-.133-3-1.975-3s-2.999.322-3.95 2l-2.962 4s0 .06 0 0c-1.605 1.918-2.94 4-3.95 4-.476 0-.535-1.101 0-2l2.962-5c.951-1.738.261-3-.987-3-.951 0-1.834-.199-2.963 1l2.963-6h-1.975l-6.912 11c-.06-.06.059.06 0 0-1.605 1.918-2.94 4-3.95 4-.475 0-1.522-1.101-.987-2l4.937-8h1.975l.987-1h-1.975l1.975-4h-1.975l-1.975 4h-1.975l-.987 1h1.975l-4.937 8c-.951 1.678.132 3 1.975 3 1.129 0 2.701-.921 3.949-2l-.987 2h1.975l3.949-6c3.447-4.375 4.901-3.678 3.95-2l-2.962 5c-.951 1.678-.855 3 .987 3 1.367 0 3.511-1.562 4.938-3 0 1.498 1.12 3 2.962 3zm1.975-8c1.307-2.277 3.341-2.337 1.975 0v1c-1.07 1.858-3.118 1.3-3.95 1l1.975-2zM223 181.025c-1.656 2.004-3.957 3.005-5 3.005-.491 0-.552-.062 0-1.002l8-14.026h-2l-4 6.011c-.429-.689-1.018-1.002-2-1.002-1.227 0-3.018 1.252-4 3.006l-2 4.008c-.061 0 0 0 0 0-1.656 2.004-3.957 3.005-5 3.005-.491 0-.552-.062 0-1.002l3-6.011c.982-1.817.288-3.006-1-3.006-.982 0-1.834.814-3 2.004l1-2.004h-3l-3 7.014c-.061-.063-.877 0-1 0-1.656 2.004-2.957 3.005-4 3.005-.491 0-.552-.062 0-1.002l3-7.013h-1c.061-1.002-.466-2.004-2-2.004-1.227 0-3.018 1.252-4 3.006l-3 4.008c-1.656 2.004-2.957 3.005-4 3.005-.491 0-.552-.062 0-1.002l2-4.007c.798-1.441.736-2.066 0-3.006l-2-2.004c-.307-.438.571-.563 1-1.002l-2-2.003c-1.35 1.19-.798 2.942 0 4.007-1.043 1.504-2.466 4.195-4 6.012.061.062-.061-.063 0 0-1.902 2.255-3.16 3.193-5 4.007l3-5.009h-3v1.002c-1.227 2.192-2.16 3.005-4 3.005-1.595 0-2.411-1.564-1-4.007l1-1.002c.429.063.509 0 1 0 8.282 0 12.301-11.021 5-11.021-1.288 0-2.957 1.189-4 3.006l-3 6.011c-1.35-.752-2-1.69-2-3.006 0-1.127.018-2.191 1-3.005l-1-2.004c-1.656 1.19-2 3.381-2 5.009 0 1.88 1.098 3.006 3 4.008l-1 2.004c-1.656 2.881-1.313 6.011 2 6.011.982 0 2.325-.563 3-1.002l-1 1.002c-3.129 1.002-5 2.191-5 4.008 0 2.255 3.344 2.944 5 0l2-3.006c2.393-.752 4.423-2.942 7-6.011-.061-.063.061.125 0 0 1.043-1.253 2.221-2.567 4-5.01v1.002c.307.376.307.501 0 1.002l-2 4.008c-.982 1.754-.902 4.007 1 4.007 1.166 0 2.773-.876 4-2.004 0 1.065.65 2.004 2 2.004.92 0 1.834-1.064 3-2.004.123.94.834 2.004 2 2.004 1.104 0 2.834-.939 4-2.004l-1 1.002h2l4-6.011c3.558-4.573 5.043-3.758 4-2.004l-3 5.01c-.982 1.754.098 4.007 2 4.007 1.227 0 2.65-.813 4-2.004-.123 1.191.589 2.004 2 2.004.92 0 1.834-1.064 3-2.004.123.94.834 2.004 2 2.004 1.902 0 4.037-2.754 6-5.009-.245-.126-.693.125-1 0zm-48-9.017c.675-1.191 1.387-2.004 2-2.004 3.681 0 1.074 8.015-5 8.015l3-6.011zm-5 18.034c-.491.877-1 .626-1 0 0-.627.221-1.315 2-2.004l-1 2.004zm25-9.017c-1.411 2.255-3.08 3.005-4 3.005-.491 0-.552-.062 0-1.002l3-6.011c1.227-2.192 3.166-1.128 2 1.002l-1 3.006zm22 0c-1.411 2.38-3.018 3.005-4 3.005-.491 0-.552-.062 0-1.002l3-6.011c1.227-2.192 4.166-1.128 3 1.002l-2 3.006zM145 203.025c-1.657 2.004-2.957 3.005-4 3.005-.491 0-1.552-.062-1-1.002l4-6.011c.982-1.817.289-3.006-1-3.006-.982 0-2.834.814-4 2.004l1-2.004h-2l-4 7.014c-.123-.063.123.062 0 0-1.043 1.19-2.834 2.003-4 2.003l2-4.007c1.412-2.506.209-5.01-2-5.01-1.78 0-2.65.626-4 3.006l-1 2.004-1 2.004c-.061-.063-.939.062-1 0-1.903 2.255-3.159 3.193-5 4.007l6-11.021h-2l-4 7.014c-1.78 1.691-3.57 3.193-4 3.005-.552-.25-.307-1.502 0-2.003l5-8.016h-2l-4 7.014c-.061-.063.061.062 0 0h-1c-1.657 2.004-2.957 3.005-4 3.005-.491 0-.552-.062 0-1.002l3-6.011c.982-1.817.289-3.006-1-3.006-.982 0-1.834.814-3 2.004l1-2.004h-3l-3 7.014c-.061-.063-.877 0-1 0-1.657 2.004-2.957 3.005-4 3.005-.491 0-.552-.062 0-1.002l3-7.013h-1c.061-1.002-1.466-2.004-3-2.004-1.227 0-3.018 1.252-4 3.006l-2 4.008c-.184-.126.123.062 0 0h-1c-1.657 2.004-3.73 3.005-6 3.005-1.596 0-2.412-1.564-1-4.007l1-1.002c.43.063.509 0 1 0 2.455 0 5.159-.75 7-4.008.675-1.19 1-2.066 1-3.005 0-2.13-1.282-4.008-3-4.008-1.289 0-2.957 1.189-4 3.006l-3 6.011c-1.35-.752-2-1.69-2-3.006 0-1.127.018-2.191 1-3.005l-1-2.004c-1.657 1.19-2 3.381-2 5.009 0 1.88 1.097 3.006 3 4.008l-1 2.004c-1.657 2.881-.314 6.011 3 6.011 2.578 0 4.404-1.439 6-3.006-.491 1.504.343 3.006 2 3.006.92 0 1.834-1.064 3-2.004.123.94.834 2.004 2 2.004 1.105 0 2.834-.939 4-2.004l-1 2.004h2l4-7.013c3.56-4.573 5.043-3.758 4-2.004l-3 5.01c-.982 1.754-.903 4.007 1 4.007 1.227 0 2.65-.751 4-2.004-.307 1.316.834 2.004 2 2.004 1.105 0 1.957-1.001 3-2.004l-1 2.004c-3.13.94-5 2.191-5 4.008 0 2.255 3.343 2.944 5 0l2-3.006c1.964-.626 3.975-2.003 6-4.008-.307 3.321 3.361 4.385 6 1.002h1c.859 0 1.957-.375 3-1.002l-2 2.004h3l3-6.011c3.56-4.573 5.043-3.758 4-2.004l-3 5.01c-.982 1.754.097 4.007 2 4.007s4.036-2.754 6-5.009c-.061-.188-.693.125-1 0zm-58-9.017c.675-1.191 1.386-2.004 2-2.004.86 0 2 .125 2 1.002 0 2.192-3.38 7.013-7 7.013l3-6.011zm8 9.017c-1.412 2.255-2.08 3.005-3 3.005-.491 0-.552-.062 0-1.002l3-6.011c1.227-2.192 3.166-1.128 2 1.002l-2 3.006zm18 9.017c-.491.877-1 .626-1 0 0-.627.22-1.315 2-2.004l-1 2.004zm16-9.017c-.736 0-2 .187-2 1.002 0 .313.816.751 1 1.001-1.105 1.942-4.35 1.504-3-1.001l2-3.006 1-2.004c1.657-2.819 4.412-1.441 3 1.002l-2 3.006zM199 202.98c-.122-.378-.695.063-1 0-.854 1.008-2.085 1.367-3 1.997.732-2.268.535-4.963 2-7.987l-2-.998c-.976 1.386-2.925 4.469-5 6.988-1.648 2.016-2.963 2.995-4 2.995-.488 0-1 .136-1-.998v-.998c1.648.189 2.902-1.043 4-2.995l1-.999c2.136-3.842-1.62-5.262-4-2.995l3-5.99h-2l-6 11.98c-.122-.126-.878.063-1 0-1.648 2.016-3.352 2.995-5 2.995-1.403 0-3.037-.107-2-1.996l3-4.992c1.342-2.394 3.403-1.458 2 .998h2c1.22-2.204-.108-3.993-2-3.993s-3.024 1.231-4 2.995l-3 3.993c-.061 0 0 0 0 0-1.648 2.016-2.963 2.995-4 2.995-.488 0-.549-.053 0-.998l5-8.985h-3l-4 7.987c-1.77 1.637-2.573 2.185-3 1.996-.549-.252-.305-1.492 0-1.996l4-7.987h-2l-4 7.987c-.488.441-1.573.62-2 .998.732-2.268.535-4.963 2-7.987l-2-.998c-.976 1.386-5.864 8.462-8 10.982.183.315.695.746 1 .998 1.342-1.575 5.207-7.851 6-8.985-.915 2.456.197 6.988-2 6.988-.793 0-1-.998-1-.998l-2 .998s.864 1.997 3 1.997c.244 0-.244.063 0 0 1.159-.189 2.902-1.178 4-1.997 0 .945.024 1.997 1 1.997 1.281 0 2.902-.926 4-1.997-.244 1.26.535 1.997 2 1.997 1.465 0 3.474-1.42 5-2.995 0 1.575 1.108 2.995 3 2.995s3.352-1.546 5-2.995l-1 2.995h2l3-4.992v1.997c0 2.016.108 2.995 2 2.995s4.047-1.726 6-3.993c1.342-1.575 2.146-3.858 3-4.992-.915 2.456.197 6.988-2 6.988-.793 0-1-.998-1-.998l-2 .998s.864 1.997 3 1.997c.244 0 .756.063 1 0 2.319-.441 4.291-2.913 6-4.992zm-15-.998v-1.997c2.685-3.842 4.854-2.447 4-.998l-1 1.997c-.671 1.259-2.451 2.573-3 .998zM200 205c-.818 0-2 .182-2 1 0 .818 1.114 2 2 2 .818 0 1-1.114 1-2 0-.818-.182-1-1-1z" fill="#fff"/><path d="M199 205h2l8-13h-2l-8 13zM50.034 169.969c0 .187.063.801 0 .988-.063.187-.861-.125-.987 0-.127.124.19.863 0 .988-.19.062-.735 0-.988 0-.315 0-.735.124-.987 0-.253-.125.19-.801 0-.988-.19-.187-.862.249-.988 0-.063-.249 0-.677 0-.988 0-.56-.19-1.477 0-1.975.19-.436.609-.677.988-.988.126-.125.798.124.987 0 .19-.125-.19-.926 0-.988.19-.062.861.062.988 0 .126-.062-.063.062 0 0l.987.988c-.126.062-.798.863-.987.988-.19.062.19-.125 0 0-.19.124-.861-.187-.988 0-.126.186 0 .738 0 .987.442 0 .672-.249.988 0 .379.187.987.552.987.988zm4.938 0c0 .187.063.801 0 .988-.063.187-.861-.125-.988 0-.126.124.19.863 0 .988-.189.062-.735 0-.987 0-.316 0-.735.124-.988 0-.252-.125.19-.801 0-.988-.126-.187-.86.249-.987 0-.063-.249 0-.677 0-.988 0-.56-.19-1.477 0-1.975.19-.436.609-.677.987-.988.127-.125.798.124.988 0 .19-.125-.19-.926 0-.988.19-.062.861.062.987 0 .127-.062-.063.062 0 0l.988.988c-.126.062-.798.863-.988.988-.189.062.19-.125 0 0-.189.124-.86-.187-.987 0-.126.186 0 .738 0 .987.442 0 .672-.249.987 0 .316.187.988.552.988.988zM216.971 206.031c0-.187-.056-.801 0-.988.057-.187-.112.125 0 0 .113-.124.816-.863.985-.988.169-.062-.225 0 0 0 .281 0 .76-.124.985 0 .224.125.816.801.984.988.169.187-.112-.249 0 0 .056.249 0 .677 0 .988 0 .56.169 1.477 0 1.975-.168.436-.647.677-.984.988-.113.125-.816-.124-.985 0-.169.125.169.926 0 .988-.169.062.112-.062 0 0s-.928-.062-.985 0v-.988c.113-.062-.168-.863 0-.988.169-.062.816.125.985 0 .169-.124-.112.187 0 0 .112-.186 0-.738 0-.987-.393 0-.704.249-.985 0-.28-.187 0-.552 0-.988zm-4.922 0c0-.187-.057-.801 0-.988.056-.187.872.125.984 0 .113-.124-.168-.863 0-.988.169-.062.76 0 .985 0 .281 0-.225-.124 0 0 .224.125.816.801.984.988.113.187-.112-.249 0 0 .056.249 0 .677 0 .988 0 .56.169 1.477 0 1.975-.168.436-.647.677-.984.988-.113.125.168-.124 0 0-.169.125-.816.926-.985.988-.168.062.113-.062 0 0-.112.062.056-.062 0 0l-.984-.988c.168-.062-.169-.863 0-.988.168-.062.816.125.984 0 .169-.124-.112.187 0 0 .113-.186.985-.738.985-.987-.393 0-.704.249-.985 0-.337-.187-.984-.552-.984-.988z" fill="#fff"/></symbol><symbol id="text-sedona" viewBox="0 0 460 80"><path d="M44.3 21.7c-3.6-3-8.1-5-12.9-5-3.6 0-8.3 2.1-8.3 6.3 0 4.4 5.3 6.1 8.6 7.1l5 1.5c10.4 3.1 18.5 8.3 18.5 20.4 0 7.4-1.8 15.1-7.7 20.1-5.9 5-13.7 7-21.2 7-9.4 0-18.7-3.2-26.3-8.5l8.3-15.7c4.9 4.3 10.6 7.7 17.3 7.7 4.6 0 9.4-2.3 9.4-7.5 0-5.5-7.6-7.3-11.8-8.5-12.4-3.3-20.4-6.5-20.4-21C2.8 10.4 13.6.5 28.6.5 36.1.5 45.4 2.9 52 6.7l-7.7 15zM91.6 19v12.5h21.9V48H91.6v12.9h23.2v16.5H72.2V2.5h42.6V19H91.6zM129.2 2.5h27.6c20.8 0 38 16.4 38 37.4s-17.3 37.4-38 37.4h-27.6V2.5zm19.5 58.3h4.4c11.6 0 21.5-6.4 21.5-20.9 0-13.4-8.8-20.9-21.3-20.9h-4.6v41.8zM286.7 38.5c0 24.2-17.4 41.3-41.4 41.3s-41.4-17.1-41.4-41.3c0-22.6 19.9-38.5 41.4-38.5s41.4 15.9 41.4 38.5zm-62.6.1c0 12.9 9.5 22.3 21.1 22.3 11.6 0 21.1-9.4 21.1-22.3 0-10.3-9.5-19.8-21.1-19.8-11.5.1-21.1 9.5-21.1 19.8zM297 2.5h19.5l35.6 45.8h.2V2.5h19.5v74.8h-19.5l-35.6-45.9h-.2v45.9H297V2.5zM407.1 64.3l-5.2 13h-20.6l28.8-74.8h21.2l28.2 74.8h-20.7l-4.9-13h-26.8zm13.6-38.7h-.2l-8 23.8h16.2l-8-23.8z" fill="#fff"/></symbol><symbol id="tick" viewBox="0 0 24 17"><path d="M22.925 1.325l-1.1-1.1c-.3-.3-.9-.3-1.2 0l-11.9 11.9-6.2-6.2c-.3-.3-.9-.3-1.2 0l-1.1 1.1c-.3.3-.3.9 0 1.2l7.8 7.8c.2.2.4.2.6.2.2 0 .4-.1.6-.2l13.5-13.5c.5-.3.5-.8.2-1.2z" fill="#000"/></symbol><symbol id="volume_scale" viewBox="0 0 235 3"><path opacity="0.2" fill="#fff" d="M0 0h235v3H0z"/></symbol><symbol id="volume_scale_long" viewBox="0 0 540 3"><path opacity="0.2" fill="#fff" d="M0 0h540v3H0z"/></symbol><symbol id="volume_slider" viewBox="0 0 11 11"><path fill-rule="evenodd" clip-rule="evenodd" d="M5.494.947a4.534 4.534 0 110 9.067 4.534 4.534 0 010-9.067z" fill="#fff"/></symbol><symbol id="white_copy" viewBox="0 0 320 37"><path fill-rule="evenodd" clip-rule="evenodd" d="M-225 0h384v37L-225 0zM543 0H159v37L543 0z" fill="#fff"/></symbol></svg>