<svg width="40" height="35" viewBox="0 0 40 35" fill="none" xmlns="http://www.w3.org/2000/svg"><path d="M38 23H2c-1.26 0-2 .795-2 2v2c0 1.205.74 2 2 2h1v1c0 2.882 2.165 5 5 5h24c2.887 0 5-2.17 5-5v-1h1c1.207 0 2-.742 2-2v-2c0-1.153-.74-2-2-2zm-2 7c0 1.991-2.005 3-4 3H8c-1.995 0-4-1.009-4-3v-1h32v1zm2-3c0 .367.367 1 0 1H2c-.367 0 0-.633 0-1v-2c0-.314-.367 0 0 0h36c.367 0 0-.367 0 0v2zM8 19l3 2 3-2 3 2 3-2 2 2 3-2 3 2 3-2 3 2 3-2-1-2-2 2-3-2-3 2-3-2-3 2-2-2-3 2-3-2-3 2-3-2-3 2-2-2-1 2 3 2 3-2zM37.976 16c0-.309.053-1.794 0-2-.372-8.026-7.578-14-16.988-14S3.372 5.974 3 14v2h34.976zM20.988 2c8.506 0 14.67 4.849 14.99 12H4.998c.373-7.151 7.484-12 15.99-12z" fill="#81B3D2"/><path d="M20 9a1 1 0 100-2 1 1 0 000 2zM16 6a1 1 0 100-2 1 1 0 000 2zM24 6a1 1 0 100-2 1 1 0 000 2z" fill="#81B3D2"/></svg>