<svg width="32" height="38" viewBox="0 0 32 38" fill="none" xmlns="http://www.w3.org/2000/svg"><path d="M31 11.009H18c6.908-3.442 7.254-5.783 7-6.998-.559-1.974-2.867-2.81-5-2-2.794 1.064-3.238 5.012-4 7.998-.965-3.037-1.816-7.023-4-8.997-.61-.557-1.629-1.101-3-1-2.032.203-5.22 2.215-4 4.999 1.117 2.682 5.511 4.631 8 5.998H1c-.813 0-1 1.24-1 1.999v4.998c0 .81.238 2 1 2h1V38h29V20.006c.813 0 1-1.24 1-2v-4.998c0-.81-.238-2-1-2zM21 3.01c1.067-.152 2.848 1.038 3 2 .203 1.366-2.137 2.442-3 2.999-1.27.86-1.832 1.29-3 1.999.406-1.873.714-6.694 3-6.998zM10 8.01C8.883 7.25 6.95 5.68 7 4.01c.05-1.822 2.476-3.366 4-2 1.93 1.671 3.289 5.265 4 7.998-1.625-.81-3.375-.936-5-2zM13 36H3V20.007h10V36zm0-17.994H2v-4.998h11v4.998zm5 17.995h-4V13.008h4v22.993zm11 0H19V20.006h10V36zm1-17.995H19v-4.998h11v4.998z" fill="#81B3D2"/></svg>