<svg width="39" height="37" viewBox="0 0 39 37" fill="none" xmlns="http://www.w3.org/2000/svg"><path d="M15 33h8V21h-8v12zm7-1h-6V22h6v10z" fill="#81B3D2"/><path d="M38 20l1-1-5-5V0h-7v7l-8-7L0 19l1 1 4-4v20H3v1h33v-1h-2V16l4 4zM28 2h4v11l-4-5V2zm4 33H7V15L19 2l13 13v20z" fill="#81B3D2"/><path d="M16 14c0 2.22 1.832 4 4 4 2.22 0 4-1.78 4-4 0-2.22-1.78-4-4-4-2.22 0-4 1.78-4 4zm4-3c1.393 0 3 1.555 3 3 0 1.393-1.555 3-3 3-1.393 0-3-1.555-3-3 0-1.393 1.607-3 3-3zM11 21H9v2h2v-2zM14 21h-2v2h2v-2zM11 24H9v2h2v-2zM14 24h-2v2h2v-2zM27 21h-2v2h2v-2zM31 21h-2v2h2v-2zM27 24h-2v2h2v-2zM31 24h-2v2h2v-2z" fill="#81B3D2"/></svg>