<svg width="18" height="15" viewBox="0 0 18 15" fill="none" xmlns="http://www.w3.org/2000/svg"><path d="M12 .184c1.749-.501 2.383.085 3 .988.72-.201 2.28.2 3 0 0 .802-.589.786-1 .987.72.2 1 0 1 0-.206 1.003-1.383 1.674-2 1.974-.206 6.62-2.697 11.061-10 10.86H5c-.411 0-4.28-.57-5-1.974 2.366.2 4.177-.285 5-.987-1.029-.301-2.691-.555-3-2.962.411.1.28.1 1 0C1.766 8.267.897 7.327 1 5.12c.309.302.691.988 1 .988-.72-.2-2.131-3.432-1-4.936C2.954 2.977 5.297 4.92 9 5.12c.103-2.307 1.149-4.335 3-4.937z" fill="#fff"/></svg>