<svg width="282" height="214" viewBox="0 0 282 214" fill="none" xmlns="http://www.w3.org/2000/svg"><path d="M101.016 43c-.812.923-1.1 1-1.97 1l.985-3c1.043-1.907.639-3-.984-3-1.333 0-2.953.154-3.938 2l-.984 2v1c-1.275 1.538-3.184 3-3.938 3-.406 0-.406-.323 0-1l3.938-7h.984l.985-1h-1.97l1.97-3h-1.97l-1.968 3h-.985l-.984 1h1.969l-3.938 6c-.753 1.353.578 3 1.969 3 .985 0 1.91-.893 2.953-2 0 2.338 3.068 2.522 4.922 0 1.044 0 3.069.107 3.938-1 0-.308-.753-.877-.984-1zm-2.954 0c-.58 0-1.968.385-1.968 1 0 .246.868.815.984 1-.812 1.476-2.954.968-1.969-1l.985-2 .984-2c1.217-2.215 3.012-.907 1.969 1l-.985 2zM127.008 43c-1.333 1.54-2.684 3-3.957 3-1.09 0-1.777-.521-.989-2v-1c1.152.493 3.613.403 4.946-2 .969-1.725.526-3-.989-3-1.455 0-3.169.645-3.957 2l-.989 3h-.989c-1.333 1.54-2.179 3-2.967 3-.424 0-.424-.322 0-1l1.978-5c.788-1.417.041-2-.989-2-.788 0-1.069.014-1.978 1l2.967-5h-1.978l-4.946 9c-1.333 1.54-3.168 3-3.956 3-.424 0-.424-.322 0-1l3.956-7h.989l.989-1h-.989l.989-3h-1.978l-.989 3h-1.978l-.989 1h1.978l-3.956 6c-.788 1.355.524 3 1.978 3 .727 0 1.19-.384 1.978-1l-.989 1h1.978l2.967-5c2.788-3.574 3.695-3.355 2.968-2l-1.978 4c-.788 1.355-.466 3 .989 3 1.09 0 2.865-.891 3.956-2 .061 1.17.524 2 1.978 2 2.061 0 4.48-1.213 5.935-3 .06-.37-.747-.877-.989-1zm-2.968-3c1.031-1.848 3.069-.91 1.979 1-.849 1.479-2.301 1.246-2.968 1l.989-2zM194 42.972c-.678.79-1.261 1.444-2 1.992.616-1.764.829-4.6 2-6.972h-2c-.739 1.034-2.275 3.033-4 4.98-1.355 1.52-2.199 2.988-3 2.988-.431 0-1.431-.327-1-.996l4-6.972h-2l-3 5.976c-1.417 1.277-2.63 2.113-3 1.992-.431-.183.754-1.566 1-1.992l3-5.976h-2l-3 4.98c-.863.913-1.076 1.992-2 1.992l1-2.988c1.109-1.886.725-3.984-1-3.984-1.417 0-2.953.167-4 1.992l-1 1.992-1 .996c-1.355 1.52-2.706 2.988-4 2.988-1.109 0-1.801-.532-1-1.992v-.996c1.171.487 3.645.38 5-1.992.986-1.704.54-2.988-1-2.988-1.479 0-3.199.653-4 1.992l-2 2.988c-1.54 1.764-2.521 3.375-4 3.984l4-6.972h-1c0-.73-.891-1.992-2-1.992-.986 0-2.261.653-3 1.992l-2 2.988c-1.355 1.52-2.199 2.988-3 2.988-.431 0-1.431-.327-1-.996l2-2.988c.616-1.095.555-2.258 0-2.988l-1-.996c-.246-.304-.37-.692 0-.996L152 36c-1.047.913-.616 2.136 0 2.988-.801 1.156-1.768 2.585-3 3.984-.863.913-2.076 1.992-3 1.992l1-2.988c1.109-1.886.725-3.984-1-3.984-1.417 0-2.953.167-4 1.992l-1 1.992v.996h-1c-1.54 1.764-2.521 3.375-4 3.984l4-6.972h-1c0-.73-.891-1.992-2-1.992-.986 0-2.261.653-3 1.992l-2 4.98c-.801 1.338-.479 1.992 1 1.992.493 0 1.322.365 2 0h-1c-2.464.73-4 2.645-4 3.984 0 1.764 2.645 1.255 4-.996l1-1.992c1.479-.426 3.46-1.589 5-2.988 0 2.312 3.028 3.49 5 .996h1c1.109 0 2.076-.897 3-1.992.863-1.034 1.521-2.037 3-3.984h1c.246.304.185.63 0 .996l-2 3.984c-.801 1.338-.479 1.992 1 1.992.924 0 2.014-.144 3-.996 0 .852.953.996 2 .996.493 0 .322.365 1 0-2.464.73-4 1.65-4 2.988 0 1.764 2.645 2.25 4 0l1-1.992c1.479-.487 3.46-1.528 5-2.988.062 1.156.46 1.992 2 1.992 1.479 0 3.768-.897 5-1.992-.062 2.373 3.028 3.49 5 .996.555 0 1.322-.631 2-.996-.493 1.278-.047 1.992 1 1.992.986 0 2.137-1.14 3-1.992-.185.973.829 1.992 2 1.992 1.54 0 3.46-1.224 5-2.988 1.047-1.217 1.322-3.132 2-3.984-.739 1.886-.213 5.976-2 5.976-.616 0-1-.996-1-.996l-1 .996s.275.996 2 .996c.185 0 .815.06 1 0 1.91-.244 3.645-1.406 5-2.988-.062-.304-.692-.935-1-.996zm-26-2.988c1.047-1.825 3.109-.89 2 .996h-1c-.863 1.46-1.322 2.235-2 1.992l1-2.988zm-35 9.96c-.37.669-1 .547-1 0 0-.487.583-.449 2-.996l-1 .996zm1-3.984c-.431 0-1.431-.327-1-.996l3-4.98c.986-1.704 2.924-.647 2 .996l-1 1.992c-1.109 1.764-2.261 2.988-3 2.988zm11-2.988c-.616 0-1 .387-1 .996 0 .243-.123.813 0 .996-.863 1.46-3.047.95-2-.996l1-1.992 1-1.992c1.294-2.19 3.109-.89 2 .996l-1 1.992zm11 6.972c-.37.669-1 .547-1 0 0-.487.583-.449 2-.996l-1 .996zm1-3.984c-.431 0-.431-.327 0-.996l3-4.98c.986-1.704 2.924-.647 2 .996l-2 1.992c-1.109 1.764-2.261 2.988-3 2.988zm18-2.988c-.616 0-1 .387-1 .996 0 .243-.123.813 0 .996-.863 1.46-2.047.95-1-.996l1-1.992 1-1.992c1.294-2.19 3.109-.89 2 .996l-2 1.992zM80 41H62v1h18v-1zM219 41h-18v1h18v-1z" fill="#766458"/><path d="M100 0h5l-1 28h-9l-1-12-1 12h-9L83 0h5v23h1l3-23h4l3 23h1V0zM120 23v5h-13V0h13v5h-8v7h6v4h-6v7h8zM132 23v5h-11V0h5v23h6zM142 18l5-1v8c0 1.621-1.445 3-3 3h-7c-1.617 0-3-1.441-3-3V3c0-1.621 1.383-3 3-3h7c1.555 0 3 1.379 3 3v6l-5 1V5h-3v18h3v-5zM160 0c1.555 0 3 1.375 3 3v22c0 1.625-1.445 3-3 3h-7c-1.617 0-3-1.438-3-3V3c0-1.625 1.383-3 3-3h7zm-2 5h-3v18h3V5zM178 0h5v28h-5V14l-2 7h-4l-2-7v14h-5V0h5l4 14 4-14zM198 23v5h-13V0h13v5h-8v7h6v4h-6v7h8z" fill="#81B3D3"/><path d="M27 96c-2.217-1.832-5.044-3-8-3-2.217 0-5 1.435-5 4 0 2.687 3.967 3.389 6 4l3 1c6.406 1.893 11 4.611 11 12 0 4.519-1.366 9.947-5 13-3.634 3.053-8.38 4-13 4a28.026 28.026 0 01-16-5l5-10c3.018 2.626 6.873 5 11 5 2.833 0 5-1.824 5-5 0-3.359-4.413-4.267-7-5-7.514-2.198-12-4.145-12-13 0-9.282 6.76-15 16-15 4.62 0 9.935 1.68 14 4l-5 9zM56 95v8h13v10H56v8h14v10H44V85h26v10H56zM79 85h17c12.683 0 23 10.086 23 23s-10.378 23-23 23H79V85zm12 36h3c7.073 0 13-4.083 13-13 0-8.24-5.378-13-13-13h-3v26zM176 107c0 14.86-10.217 25-25 25s-26-10.14-26-25c0-13.877 12.757-24 26-24s25 10.123 25 24zm-39 0c0 7.921 5.855 13 13 13s13-5.079 13-13c0-6.325-5.855-12-13-12-7.083 0-13 5.675-13 12zM182 85h12l22 28V85h12v46h-12l-22-28v28h-12V85zM250 123l-3 8h-13l18-46h13l17 46h-13l-3-8h-16zm8-24l-5 15h10l-5-15zM65.885 176c4.832-1.609 5.713-8 1.007-8-1.318 0-2.962 1.205-4.029 3l-6.042 11c-.314.495-.63.567-1.007 1-1.632-2.228-1.315-5.515 1.007-7l-1.007-1c-5.02 3.156-3.311 12 5.035 12 7.091 0 9.617-7.967 5.036-11zm-6.043 9c-1.443 0-2.08-.505-3.021-1 .439-.495.63-.381 1.007-1l4.028-7h1.007c5.585 1.176 2.752 9-3.021 9zm3.021-11l2.014-3c1.758-2.971 4.214-1.228 3.022 1-.941 1.733-2.588 1.938-5.036 2z" fill="#fff"/><path d="M84.82 182.98c-.37 1.341.473 2.993 2.008 2.993.92 0 2.85-1.081 4.017-1.996.123.915.843 1.996 2.01 1.996 1.227 0 1.662-.777 3.013-1.996-.246 1.219.842 1.996 2.008 1.996 1.29 0 2.913-.959 4.018-1.996-.246 1.219.535 1.996 2.009 1.996 1.903 0 4.062-1.797 6.026-3.991v-.998c1.29-1.463 2.154-2.894 3.014-3.991-.921 2.377-.803 6.984-3.014 6.984-.798 0-1.004-.997-1.004-.997l-1.004.997s-.141 1.996 2.008 1.996c.246 0 .759.061 1.005 0 1.719-.244 3.548-1.713 5.022-2.993.061 1.523 1.11 2.993 3.013 2.993 2.64 0 5.128-1.797 7.031-3.991-.184-.305-.697-.876-1.004-.998-1.658 1.951-3.365 2.993-5.022 2.993-1.413 0-3.053-.167-2.009-1.995l1.004-.998c1.474.61 4.246.991 6.027-1.995v-.998c1.228-2.133-.106-3.991-2.009-3.991-1.904 0-3.035 1.287-4.018 2.993l-2.009 3.991h-1.004c-.86.975-2.092 1.386-3.013 1.996.736-2.194.535-5.057 2.008-7.982l-1.004-.998c-.982 1.341-2.934 4.546-5.022 6.984-1.658 1.951-3.978 2.993-5.022 2.993-.491 0-.553-.083 0-.997l5.022-8.98h-2.009l-4.018 7.982c-1.78 1.585-3.587 2.178-4.017 1.995-.553-.243-.307-1.507 0-1.995l5.022-6.984h-2.009l-4.018 5.986c-.061-.061.062.061 0 0-1.657 1.951-3.978 2.993-5.022 2.993-.49 0-.552-.083 0-.997l4.018-5.987h-2.009c.062-.975-.474-2.993-2.009-2.993-1.228 0-3.035 1.287-4.017 2.993l-2.01 3.991c-.122-.122-.88.061-1.004 0-1.657 1.951-3.364 2.993-5.022 2.993-1.412 0-2.048-.167-1.004-1.995l2.009-3.991c1.35-2.316 3.42-2.377 2.009 0v.998h2.008v-.998c1.229-2.133-.105-3.991-2.008-3.991-1.904 0-3.036 1.287-4.018 2.993l-2.009 3.991c-.061-.061-.943.061-1.004 0-1.658 1.951-3.364 3.991-5.022 3.991-1.413 0-2.049-1.165-1.005-2.993v-.998c1.474.61 4.246.991 6.027-1.995v-.998c1.228-2.133-.106-3.991-2.01-3.991-1.903 0-3.034 1.287-4.017 2.993l-2.008 3.991c-1.474 2.438-.755 4.989 2.008 4.989 2.027 0 4.369-1.409 6.027-2.993-.062 1.584 1.048 2.993 3.013 2.993 1.965-.122 3.364-1.592 5.022-2.993zm36.158-5.987c1.351-2.316 3.421-1.379 2.009.998v.998c-1.105 1.889-3.158 1.302-4.018.997l2.009-2.993zm-33.146 5.987l3.014-4.989c1.228-2.133 4.18-2.072 3.013 0l-2.009 2.993c-1.412 2.194-3.097 2.993-4.018 2.993-.49-.061-.552-.083 0-.997zm-15.066-5.987c1.351-2.316 3.421-1.379 2.009.998v.998c-1.105 1.889-2.154 1.302-3.013.997l1.004-2.993zM151.088 185c2.555 0 5.07-1.843 6.912-4-.178-.3-.69-.88-.987-1-1.605 1.918-3.333 4-4.938 4-1.366 0-2.985-1.202-1.975-3h.988c1.426.599 4.201-.064 5.925-3v-1c1.188-2.097-.133-3-1.975-3s-2.999.322-3.95 2l-2.962 4s0 .06 0 0c-1.605 1.918-2.94 4-3.95 4-.476 0-.535-1.101 0-2l2.962-5c.951-1.738.261-3-.987-3-.951 0-1.834-.199-2.963 1l2.963-6h-1.975l-6.912 11c-.06-.06.059.06 0 0-1.605 1.918-2.94 4-3.95 4-.475 0-1.522-1.101-.987-2l4.937-8h1.975l.987-1h-1.975l1.975-4h-1.975l-1.975 4h-1.975l-.987 1h1.975l-4.937 8c-.951 1.678.132 3 1.975 3 1.129 0 2.701-.921 3.949-2l-.987 2h1.975l3.949-6c3.447-4.375 4.901-3.678 3.95-2l-2.962 5c-.951 1.678-.855 3 .987 3 1.367 0 3.511-1.562 4.938-3 0 1.498 1.12 3 2.962 3zm1.975-8c1.307-2.277 3.341-2.337 1.975 0v1c-1.07 1.858-3.118 1.3-3.95 1l1.975-2zM223 181.025c-1.656 2.004-3.957 3.005-5 3.005-.491 0-.552-.062 0-1.002l8-14.026h-2l-4 6.011c-.429-.689-1.018-1.002-2-1.002-1.227 0-3.018 1.252-4 3.006l-2 4.008c-.061 0 0 0 0 0-1.656 2.004-3.957 3.005-5 3.005-.491 0-.552-.062 0-1.002l3-6.011c.982-1.817.288-3.006-1-3.006-.982 0-1.834.814-3 2.004l1-2.004h-3l-3 7.014c-.061-.063-.877 0-1 0-1.656 2.004-2.957 3.005-4 3.005-.491 0-.552-.062 0-1.002l3-7.013h-1c.061-1.002-.466-2.004-2-2.004-1.227 0-3.018 1.252-4 3.006l-3 4.008c-1.656 2.004-2.957 3.005-4 3.005-.491 0-.552-.062 0-1.002l2-4.007c.798-1.441.736-2.066 0-3.006l-2-2.004c-.307-.438.571-.563 1-1.002l-2-2.003c-1.35 1.19-.798 2.942 0 4.007-1.043 1.504-2.466 4.195-4 6.012.061.062-.061-.063 0 0-1.902 2.255-3.16 3.193-5 4.007l3-5.009h-3v1.002c-1.227 2.192-2.16 3.005-4 3.005-1.595 0-2.411-1.564-1-4.007l1-1.002c.429.063.509 0 1 0 8.282 0 12.301-11.021 5-11.021-1.288 0-2.957 1.189-4 3.006l-3 6.011c-1.35-.752-2-1.69-2-3.006 0-1.127.018-2.191 1-3.005l-1-2.004c-1.656 1.19-2 3.381-2 5.009 0 1.88 1.098 3.006 3 4.008l-1 2.004c-1.656 2.881-1.313 6.011 2 6.011.982 0 2.325-.563 3-1.002l-1 1.002c-3.129 1.002-5 2.191-5 4.008 0 2.255 3.344 2.944 5 0l2-3.006c2.393-.752 4.423-2.942 7-6.011-.061-.063.061.125 0 0 1.043-1.253 2.221-2.567 4-5.01v1.002c.307.376.307.501 0 1.002l-2 4.008c-.982 1.754-.902 4.007 1 4.007 1.166 0 2.773-.876 4-2.004 0 1.065.65 2.004 2 2.004.92 0 1.834-1.064 3-2.004.123.94.834 2.004 2 2.004 1.104 0 2.834-.939 4-2.004l-1 1.002h2l4-6.011c3.558-4.573 5.043-3.758 4-2.004l-3 5.01c-.982 1.754.098 4.007 2 4.007 1.227 0 2.65-.813 4-2.004-.123 1.191.589 2.004 2 2.004.92 0 1.834-1.064 3-2.004.123.94.834 2.004 2 2.004 1.902 0 4.037-2.754 6-5.009-.245-.126-.693.125-1 0zm-48-9.017c.675-1.191 1.387-2.004 2-2.004 3.681 0 1.074 8.015-5 8.015l3-6.011zm-5 18.034c-.491.877-1 .626-1 0 0-.627.221-1.315 2-2.004l-1 2.004zm25-9.017c-1.411 2.255-3.08 3.005-4 3.005-.491 0-.552-.062 0-1.002l3-6.011c1.227-2.192 3.166-1.128 2 1.002l-1 3.006zm22 0c-1.411 2.38-3.018 3.005-4 3.005-.491 0-.552-.062 0-1.002l3-6.011c1.227-2.192 4.166-1.128 3 1.002l-2 3.006zM145 203.025c-1.657 2.004-2.957 3.005-4 3.005-.491 0-1.552-.062-1-1.002l4-6.011c.982-1.817.289-3.006-1-3.006-.982 0-2.834.814-4 2.004l1-2.004h-2l-4 7.014c-.123-.063.123.062 0 0-1.043 1.19-2.834 2.003-4 2.003l2-4.007c1.412-2.506.209-5.01-2-5.01-1.78 0-2.65.626-4 3.006l-1 2.004-1 2.004c-.061-.063-.939.062-1 0-1.903 2.255-3.159 3.193-5 4.007l6-11.021h-2l-4 7.014c-1.78 1.691-3.57 3.193-4 3.005-.552-.25-.307-1.502 0-2.003l5-8.016h-2l-4 7.014c-.061-.063.061.062 0 0h-1c-1.657 2.004-2.957 3.005-4 3.005-.491 0-.552-.062 0-1.002l3-6.011c.982-1.817.289-3.006-1-3.006-.982 0-1.834.814-3 2.004l1-2.004h-3l-3 7.014c-.061-.063-.877 0-1 0-1.657 2.004-2.957 3.005-4 3.005-.491 0-.552-.062 0-1.002l3-7.013h-1c.061-1.002-1.466-2.004-3-2.004-1.227 0-3.018 1.252-4 3.006l-2 4.008c-.184-.126.123.062 0 0h-1c-1.657 2.004-3.73 3.005-6 3.005-1.596 0-2.412-1.564-1-4.007l1-1.002c.43.063.509 0 1 0 2.455 0 5.159-.75 7-4.008.675-1.19 1-2.066 1-3.005 0-2.13-1.282-4.008-3-4.008-1.289 0-2.957 1.189-4 3.006l-3 6.011c-1.35-.752-2-1.69-2-3.006 0-1.127.018-2.191 1-3.005l-1-2.004c-1.657 1.19-2 3.381-2 5.009 0 1.88 1.097 3.006 3 4.008l-1 2.004c-1.657 2.881-.314 6.011 3 6.011 2.578 0 4.404-1.439 6-3.006-.491 1.504.343 3.006 2 3.006.92 0 1.834-1.064 3-2.004.123.94.834 2.004 2 2.004 1.105 0 2.834-.939 4-2.004l-1 2.004h2l4-7.013c3.56-4.573 5.043-3.758 4-2.004l-3 5.01c-.982 1.754-.903 4.007 1 4.007 1.227 0 2.65-.751 4-2.004-.307 1.316.834 2.004 2 2.004 1.105 0 1.957-1.001 3-2.004l-1 2.004c-3.13.94-5 2.191-5 4.008 0 2.255 3.343 2.944 5 0l2-3.006c1.964-.626 3.975-2.003 6-4.008-.307 3.321 3.361 4.385 6 1.002h1c.859 0 1.957-.375 3-1.002l-2 2.004h3l3-6.011c3.56-4.573 5.043-3.758 4-2.004l-3 5.01c-.982 1.754.097 4.007 2 4.007s4.036-2.754 6-5.009c-.061-.188-.693.125-1 0zm-58-9.017c.675-1.191 1.386-2.004 2-2.004.86 0 2 .125 2 1.002 0 2.192-3.38 7.013-7 7.013l3-6.011zm8 9.017c-1.412 2.255-2.08 3.005-3 3.005-.491 0-.552-.062 0-1.002l3-6.011c1.227-2.192 3.166-1.128 2 1.002l-2 3.006zm18 9.017c-.491.877-1 .626-1 0 0-.627.22-1.315 2-2.004l-1 2.004zm16-9.017c-.736 0-2 .187-2 1.002 0 .313.816.751 1 1.001-1.105 1.942-4.35 1.504-3-1.001l2-3.006 1-2.004c1.657-2.819 4.412-1.441 3 1.002l-2 3.006zM199 202.98c-.122-.378-.695.063-1 0-.854 1.008-2.085 1.367-3 1.997.732-2.268.535-4.963 2-7.987l-2-.998c-.976 1.386-2.925 4.469-5 6.988-1.648 2.016-2.963 2.995-4 2.995-.488 0-1 .136-1-.998v-.998c1.648.189 2.902-1.043 4-2.995l1-.999c2.136-3.842-1.62-5.262-4-2.995l3-5.99h-2l-6 11.98c-.122-.126-.878.063-1 0-1.648 2.016-3.352 2.995-5 2.995-1.403 0-3.037-.107-2-1.996l3-4.992c1.342-2.394 3.403-1.458 2 .998h2c1.22-2.204-.108-3.993-2-3.993s-3.024 1.231-4 2.995l-3 3.993c-.061 0 0 0 0 0-1.648 2.016-2.963 2.995-4 2.995-.488 0-.549-.053 0-.998l5-8.985h-3l-4 7.987c-1.77 1.637-2.573 2.185-3 1.996-.549-.252-.305-1.492 0-1.996l4-7.987h-2l-4 7.987c-.488.441-1.573.62-2 .998.732-2.268.535-4.963 2-7.987l-2-.998c-.976 1.386-5.864 8.462-8 10.982.183.315.695.746 1 .998 1.342-1.575 5.207-7.851 6-8.985-.915 2.456.197 6.988-2 6.988-.793 0-1-.998-1-.998l-2 .998s.864 1.997 3 1.997c.244 0-.244.063 0 0 1.159-.189 2.902-1.178 4-1.997 0 .945.024 1.997 1 1.997 1.281 0 2.902-.926 4-1.997-.244 1.26.535 1.997 2 1.997 1.465 0 3.474-1.42 5-2.995 0 1.575 1.108 2.995 3 2.995s3.352-1.546 5-2.995l-1 2.995h2l3-4.992v1.997c0 2.016.108 2.995 2 2.995s4.047-1.726 6-3.993c1.342-1.575 2.146-3.858 3-4.992-.915 2.456.197 6.988-2 6.988-.793 0-1-.998-1-.998l-2 .998s.864 1.997 3 1.997c.244 0 .756.063 1 0 2.319-.441 4.291-2.913 6-4.992zm-15-.998v-1.997c2.685-3.842 4.854-2.447 4-.998l-1 1.997c-.671 1.259-2.451 2.573-3 .998zM200 205c-.818 0-2 .182-2 1 0 .818 1.114 2 2 2 .818 0 1-1.114 1-2 0-.818-.182-1-1-1z" fill="#fff"/><path d="M199 205h2l8-13h-2l-8 13zM50.034 169.969c0 .187.063.801 0 .988-.063.187-.861-.125-.987 0-.127.124.19.863 0 .988-.19.062-.735 0-.988 0-.315 0-.735.124-.987 0-.253-.125.19-.801 0-.988-.19-.187-.862.249-.988 0-.063-.249 0-.677 0-.988 0-.56-.19-1.477 0-1.975.19-.436.609-.677.988-.988.126-.125.798.124.987 0 .19-.125-.19-.926 0-.988.19-.062.861.062.988 0 .126-.062-.063.062 0 0l.987.988c-.126.062-.798.863-.987.988-.19.062.19-.125 0 0-.19.124-.861-.187-.988 0-.126.186 0 .738 0 .987.442 0 .672-.249.988 0 .379.187.987.552.987.988zm4.938 0c0 .187.063.801 0 .988-.063.187-.861-.125-.988 0-.126.124.19.863 0 .988-.189.062-.735 0-.987 0-.316 0-.735.124-.988 0-.252-.125.19-.801 0-.988-.126-.187-.86.249-.987 0-.063-.249 0-.677 0-.988 0-.56-.19-1.477 0-1.975.19-.436.609-.677.987-.988.127-.125.798.124.988 0 .19-.125-.19-.926 0-.988.19-.062.861.062.987 0 .127-.062-.063.062 0 0l.988.988c-.126.062-.798.863-.988.988-.189.062.19-.125 0 0-.189.124-.86-.187-.987 0-.126.186 0 .738 0 .987.442 0 .672-.249.987 0 .316.187.988.552.988.988zM216.971 206.031c0-.187-.056-.801 0-.988.057-.187-.112.125 0 0 .113-.124.816-.863.985-.988.169-.062-.225 0 0 0 .281 0 .76-.124.985 0 .224.125.816.801.984.988.169.187-.112-.249 0 0 .056.249 0 .677 0 .988 0 .56.169 1.477 0 1.975-.168.436-.647.677-.984.988-.113.125-.816-.124-.985 0-.169.125.169.926 0 .988-.169.062.112-.062 0 0s-.928-.062-.985 0v-.988c.113-.062-.168-.863 0-.988.169-.062.816.125.985 0 .169-.124-.112.187 0 0 .112-.186 0-.738 0-.987-.393 0-.704.249-.985 0-.28-.187 0-.552 0-.988zm-4.922 0c0-.187-.057-.801 0-.988.056-.187.872.125.984 0 .113-.124-.168-.863 0-.988.169-.062.76 0 .985 0 .281 0-.225-.124 0 0 .224.125.816.801.984.988.113.187-.112-.249 0 0 .056.249 0 .677 0 .988 0 .56.169 1.477 0 1.975-.168.436-.647.677-.984.988-.113.125.168-.124 0 0-.169.125-.816.926-.985.988-.168.062.113-.062 0 0-.112.062.056-.062 0 0l-.984-.988c.168-.062-.169-.863 0-.988.168-.062.816.125.984 0 .169-.124-.112.187 0 0 .113-.186.985-.738.985-.987-.393 0-.704.249-.985 0-.337-.187-.984-.552-.984-.988z" fill="#fff"/></svg>