<svg width="26" height="26" fill="none" xmlns="http://www.w3.org/2000/svg"><path d="M15.615 3.658l-.342-.365-.73.684.342.365.73-.684zM22 11.2l.495.07.034-.237-.164-.175L22 11.2zM20.456 22v.5h.434l.061-.43-.495-.07zM5.543 22l-.495.07.062.43h.433V22zM4 11.2l-.365-.342-.164.175.034.238L4 11.2zm7.115-6.858l.342-.365-.73-.684-.342.365.73.684zm3.77 0l6.75 7.2.73-.684-6.75-7.2-.73.684zm6.62 6.787l-1.544 10.8.99.142 1.544-10.8-.99-.142zM20.456 21.5H5.543v1h14.913v-1zm-14.418.43l-1.543-10.8-.99.14 1.543 10.8.99-.14zM4.365 11.541l6.75-7.2-.73-.684-6.75 7.2.73.684zM4 11.7h18v-1H4v1z" fill="#211E1D"/></svg>