<svg width="20" height="20" fill="none" xmlns="http://www.w3.org/2000/svg"><path d="M10.005 2.621c2.406 0 2.691.01 3.637.053.88.038 1.355.186 1.671.31.419.161.722.358 1.034.67.317.317.51.616.672 1.035.123.316.271.794.31 1.67.042.95.053 1.234.053 3.636 0 2.405-.01 2.69-.053 3.636-.039.879-.187 1.353-.31 1.67-.161.418-.358.72-.671 1.034a2.77 2.77 0 01-1.035.671c-.316.123-.795.271-1.67.31-.95.042-1.235.052-3.638.052-2.406 0-2.69-.01-3.637-.052-.88-.039-1.354-.187-1.671-.31a2.785 2.785 0 01-1.034-.671A2.768 2.768 0 012.99 15.3c-.123-.317-.271-.795-.31-1.67-.042-.95-.052-1.235-.052-3.636 0-2.405.01-2.69.052-3.636.039-.88.187-1.354.31-1.67.162-.419.359-.721.672-1.034a2.77 2.77 0 011.034-.672c.317-.123.795-.27 1.67-.31.947-.041 1.232-.052 3.638-.052zm0-1.621c-2.445 0-2.75.01-3.711.053-.957.042-1.615.197-2.184.418a4.395 4.395 0 00-1.598 1.041 4.41 4.41 0 00-1.04 1.593c-.222.573-.377 1.227-.42 2.184C1.01 7.252 1 7.558 1 10.002s.01 2.75.053 3.71c.042.956.197 1.614.418 2.183a4.393 4.393 0 001.041 1.596c.5.5 1.003.81 1.594 1.038.573.221 1.228.376 2.184.418.96.043 1.267.053 3.712.053 2.444 0 2.75-.01 3.71-.053.958-.042 1.615-.197 2.185-.418a4.401 4.401 0 001.594-1.038 4.4 4.4 0 001.038-1.592c.221-.573.376-1.228.418-2.184.042-.96.053-1.266.053-3.71s-.01-2.75-.053-3.71c-.042-.956-.197-1.613-.418-2.183a4.215 4.215 0 00-1.031-1.6 4.39 4.39 0 00-1.594-1.037c-.573-.222-1.227-.377-2.184-.419C12.756 1.011 12.45 1 10.005 1z" fill="#211E1D"/><path d="M10.005 5.378a4.626 4.626 0 00-4.626 4.624 4.626 4.626 0 009.252 0 4.626 4.626 0 00-4.626-4.624zm0 7.623a3 3 0 110-6 3 3 0 010 6zm5.889-7.806a1.08 1.08 0 11-2.16-.001 1.08 1.08 0 012.16 0z" fill="#211E1D"/></svg>