<svg width="90" height="36" fill="none" xmlns="http://www.w3.org/2000/svg"><path d="M13.54 5.31a22.8 22.8 0 00-.32-.961 4.354 4.354 0 00-.513-1.088 3.139 3.139 0 00-.85-.873c-.341-.237-.766-.356-1.273-.356-.496 0-.88.25-1.15.748-.272.487-.408 1.23-.408 2.228v4.295h4.513v2.228H9.026v16.021H3.54V11.531H0V9.303h3.54V7.271c0-.938.183-1.841.548-2.709a7.617 7.617 0 011.558-2.334A7.736 7.736 0 018.017.606C8.937.202 9.947 0 11.044 0c.896 0 1.67.125 2.318.374a6.148 6.148 0 011.664.891c.46.345.838.713 1.133 1.105.306.38.548.72.725 1.016L13.54 5.311zm7.717 3.993V22.17c0 .357.071.695.213 1.016.141.309.33.582.566.82.248.226.531.404.85.535.318.13.66.196 1.026.196.2 0 .425-.054.673-.16.26-.12.519-.28.778-.482.272-.202.537-.44.797-.713.26-.273.49-.57.69-.89V9.302h5.486v18.25H26.85v-1.694a9.943 9.943 0 01-2.318 1.48c-.803.368-1.593.552-2.372.552a6.99 6.99 0 01-2.513-.445 6.863 6.863 0 01-2.035-1.23 5.959 5.959 0 01-1.345-1.818 5.161 5.161 0 01-.496-2.228V9.303h5.486zm28.43 3.832a10.682 10.682 0 00-.69-.553 3.382 3.382 0 00-.602-.374 2.352 2.352 0 00-.638-.196 3.34 3.34 0 00-.725-.071c-.378 0-.75.065-1.115.196a3.792 3.792 0 00-1.027.516c-.318.214-.607.47-.867.767a3.496 3.496 0 00-.584.927v13.205h-5.486V10.96l3.84-2.031 1.646 1.782a7.62 7.62 0 012-1.515 5.065 5.065 0 012.336-.57c.79 0 1.505.166 2.142.499.637.32 1.191.677 1.663 1.07l-1.893 2.94zm9.619 14.417h-5.468V2.032L57.66 0h1.646v27.552zm5.676 4.313l.46.232c.2.095.413.184.637.267.236.084.484.155.744.214.26.06.519.09.778.09.213 0 .425-.125.637-.375.213-.25.413-.54.602-.873.189-.333.354-.666.496-.998l.336-.73 1.575-3.44-8.831-16.949h5.805l5.716 10.925L79 9.303h3.876L72.858 31.277a8.467 8.467 0 01-2.92 3.422 7.707 7.707 0 01-1.894.962 5.845 5.845 0 01-1.93.339c-.53 0-1.02-.065-1.468-.196a3.332 3.332 0 01-1.168-.553l1.504-3.386zm20.133-6.38c0-.332.06-.647.177-.944.13-.31.307-.57.531-.785.224-.225.478-.404.761-.534.295-.13.614-.196.956-.196.342 0 .66.065.956.196.306.13.566.309.778.534.225.214.401.476.531.785.13.297.195.611.195.944a2.377 2.377 0 01-.726 1.729c-.212.214-.472.38-.778.499-.295.13-.614.196-.956.196-.342 0-.66-.065-.956-.196a2.491 2.491 0 01-.76-.5 2.34 2.34 0 01-.532-.765 2.583 2.583 0 01-.177-.963z" fill="#211E1D"/></svg>