<svg width="20" height="20" fill="none" xmlns="http://www.w3.org/2000/svg"><path d="M10 1a9 9 0 00-3.28 17.381c-.077-.713-.151-1.803.032-2.58l1.054-4.472s-.27-.538-.27-1.336c0-1.252.724-2.187 1.627-2.187.767 0 1.14.577 1.14 1.27 0 .773-.493 1.926-.746 2.995-.21.896.45 1.627 1.333 1.627 1.6 0 2.83-1.687 2.83-4.12 0-2.155-1.547-3.663-3.758-3.663-2.56 0-4.065 1.92-4.065 3.906 0 .773.3 1.603.672 2.053a.27.27 0 01.063.256c-.067.285-.221.897-.25 1.02-.038.165-.13.2-.302.12-1.125-.524-1.828-2.166-1.828-3.488 0-2.84 2.064-5.446 5.945-5.446 3.122 0 5.548 2.226 5.548 5.2 0 3.1-1.955 5.597-4.669 5.597-.91 0-1.768-.475-2.064-1.034l-.559 2.141c-.204.78-.752 1.762-1.118 2.36.844.26 1.737.4 2.665.4a9 9 0 009-9 9 9 0 00-9-9z" fill="#211E1D"/></svg>