<?xml version="1.0" encoding="utf-8"?><svg viewBox="0 0 90 36" xmlns="http://www.w3.org/2000/svg" xmlns:xlink="http://www.w3.org/1999/xlink"><style>:root>svg{display:none}:root>svg:target{display:block}</style><svg fill="none" viewBox="0 0 26 26" id="basket" xmlns="http://www.w3.org/2000/svg"><path d="M15.615 3.658l-.342-.365-.73.684.342.365.73-.684zM22 11.2l.495.07.034-.237-.164-.175L22 11.2zM20.456 22v.5h.434l.061-.43-.495-.07zM5.543 22l-.495.07.062.43h.433V22zM4 11.2l-.365-.342-.164.175.034.238L4 11.2zm7.115-6.858l.342-.365-.73-.684-.342.365.73.684zm3.77 0l6.75 7.2.73-.684-6.75-7.2-.73.684zm6.62 6.787l-1.544 10.8.99.142 1.544-10.8-.99-.142zM20.456 21.5H5.543v1h14.913v-1zm-14.418.43l-1.543-10.8-.99.14 1.543 10.8.99-.14zM4.365 11.541l6.75-7.2-.73-.684-6.75 7.2.73.684zM4 11.7h18v-1H4v1z" fill="#211E1D"/></svg><svg fill="none" viewBox="0 0 26 26" id="entrance" xmlns="http://www.w3.org/2000/svg"><path d="M12.703 16.375L16.26 13m0 0l-3.556-3.375M16.26 13H4.999m16-9v18H7.964V4H21z" stroke="#211E1D" stroke-linecap="square"/></svg><svg fill="none" viewBox="0 0 20 20" id="facebook" xmlns="http://www.w3.org/2000/svg"><path d="M19 10.055C19 5.055 14.97 1 10 1s-9 4.054-9 9.055c0 4.52 3.291 8.266 7.594 8.945v-6.328H6.309v-2.617h2.285V8.06c0-2.27 1.344-3.523 3.4-3.523.984 0 2.014.177 2.014.177v2.228h-1.135c-1.118 0-1.467.698-1.467 1.415v1.698h2.496l-.398 2.617h-2.098V19C15.71 18.32 19 14.575 19 10.055z" fill="#211E1D"/></svg><svg fill="none" viewBox="0 0 26 26" id="favourite" xmlns="http://www.w3.org/2000/svg"><path d="M13 22l-1.45-1.295C6.4 16.125 3 13.103 3 9.395 3 6.374 5.42 4 8.5 4c1.74 0 3.41.795 4.5 2.05A6.037 6.037 0 0117.5 4C20.58 4 23 6.374 23 9.395c0 3.708-3.4 6.73-8.55 11.32L13 22z" stroke="#211E1D" stroke-linecap="square"/></svg><svg fill="none" viewBox="0 0 20 20" id="instagram" xmlns="http://www.w3.org/2000/svg"><path d="M10.005 2.621c2.406 0 2.691.01 3.637.053.88.038 1.355.186 1.671.31.419.161.722.358 1.034.67.317.317.51.616.672 1.035.123.316.271.794.31 1.67.042.95.053 1.234.053 3.636 0 2.405-.01 2.69-.053 3.636-.039.879-.187 1.353-.31 1.67-.161.418-.358.72-.671 1.034a2.77 2.77 0 01-1.035.671c-.316.123-.795.271-1.67.31-.95.042-1.235.052-3.638.052-2.406 0-2.69-.01-3.637-.052-.88-.039-1.354-.187-1.671-.31a2.785 2.785 0 01-1.034-.671A2.768 2.768 0 012.99 15.3c-.123-.317-.271-.795-.31-1.67-.042-.95-.052-1.235-.052-3.636 0-2.405.01-2.69.052-3.636.039-.88.187-1.354.31-1.67.162-.419.359-.721.672-1.034a2.77 2.77 0 011.034-.672c.317-.123.795-.27 1.67-.31.947-.041 1.232-.052 3.638-.052zm0-1.621c-2.445 0-2.75.01-3.711.053-.957.042-1.615.197-2.184.418a4.395 4.395 0 00-1.598 1.041 4.41 4.41 0 00-1.04 1.593c-.222.573-.377 1.227-.42 2.184C1.01 7.252 1 7.558 1 10.002s.01 2.75.053 3.71c.042.956.197 1.614.418 2.183a4.393 4.393 0 001.041 1.596c.5.5 1.003.81 1.594 1.038.573.221 1.228.376 2.184.418.96.043 1.267.053 3.712.053 2.444 0 2.75-.01 3.71-.053.958-.042 1.615-.197 2.185-.418a4.401 4.401 0 001.594-1.038 4.4 4.4 0 001.038-1.592c.221-.573.376-1.228.418-2.184.042-.96.053-1.266.053-3.71s-.01-2.75-.053-3.71c-.042-.956-.197-1.613-.418-2.183a4.215 4.215 0 00-1.031-1.6 4.39 4.39 0 00-1.594-1.037c-.573-.222-1.227-.377-2.184-.419C12.756 1.011 12.45 1 10.005 1z" fill="#211E1D"/><path d="M10.005 5.378a4.626 4.626 0 00-4.626 4.624 4.626 4.626 0 009.252 0 4.626 4.626 0 00-4.626-4.624zm0 7.623a3 3 0 110-6 3 3 0 010 6zm5.889-7.806a1.08 1.08 0 11-2.16-.001 1.08 1.08 0 012.16 0z" fill="#211E1D"/></svg><svg fill="none" viewBox="0 0 90 36" id="logo" xmlns="http://www.w3.org/2000/svg"><path d="M13.54 5.31a22.8 22.8 0 00-.32-.961 4.354 4.354 0 00-.513-1.088 3.139 3.139 0 00-.85-.873c-.341-.237-.766-.356-1.273-.356-.496 0-.88.25-1.15.748-.272.487-.408 1.23-.408 2.228v4.295h4.513v2.228H9.026v16.021H3.54V11.531H0V9.303h3.54V7.271c0-.938.183-1.841.548-2.709a7.617 7.617 0 011.558-2.334A7.736 7.736 0 018.017.606C8.937.202 9.947 0 11.044 0c.896 0 1.67.125 2.318.374a6.148 6.148 0 011.664.891c.46.345.838.713 1.133 1.105.306.38.548.72.725 1.016L13.54 5.311zm7.717 3.993V22.17c0 .357.071.695.213 1.016.141.309.33.582.566.82.248.226.531.404.85.535.318.13.66.196 1.026.196.2 0 .425-.054.673-.16.26-.12.519-.28.778-.482.272-.202.537-.44.797-.713.26-.273.49-.57.69-.89V9.302h5.486v18.25H26.85v-1.694a9.943 9.943 0 01-2.318 1.48c-.803.368-1.593.552-2.372.552a6.99 6.99 0 01-2.513-.445 6.863 6.863 0 01-2.035-1.23 5.959 5.959 0 01-1.345-1.818 5.161 5.161 0 01-.496-2.228V9.303h5.486zm28.43 3.832a10.682 10.682 0 00-.69-.553 3.382 3.382 0 00-.602-.374 2.352 2.352 0 00-.638-.196 3.34 3.34 0 00-.725-.071c-.378 0-.75.065-1.115.196a3.792 3.792 0 00-1.027.516c-.318.214-.607.47-.867.767a3.496 3.496 0 00-.584.927v13.205h-5.486V10.96l3.84-2.031 1.646 1.782a7.62 7.62 0 012-1.515 5.065 5.065 0 012.336-.57c.79 0 1.505.166 2.142.499.637.32 1.191.677 1.663 1.07l-1.893 2.94zm9.619 14.417h-5.468V2.032L57.66 0h1.646v27.552zm5.676 4.313l.46.232c.2.095.413.184.637.267.236.084.484.155.744.214.26.06.519.09.778.09.213 0 .425-.125.637-.375.213-.25.413-.54.602-.873.189-.333.354-.666.496-.998l.336-.73 1.575-3.44-8.831-16.949h5.805l5.716 10.925L79 9.303h3.876L72.858 31.277a8.467 8.467 0 01-2.92 3.422 7.707 7.707 0 01-1.894.962 5.845 5.845 0 01-1.93.339c-.53 0-1.02-.065-1.468-.196a3.332 3.332 0 01-1.168-.553l1.504-3.386zm20.133-6.38c0-.332.06-.647.177-.944.13-.31.307-.57.531-.785.224-.225.478-.404.761-.534.295-.13.614-.196.956-.196.342 0 .66.065.956.196.306.13.566.309.778.534.225.214.401.476.531.785.13.297.195.611.195.944a2.377 2.377 0 01-.726 1.729c-.212.214-.472.38-.778.499-.295.13-.614.196-.956.196-.342 0-.66-.065-.956-.196a2.491 2.491 0 01-.76-.5 2.34 2.34 0 01-.532-.765 2.583 2.583 0 01-.177-.963z" fill="#211E1D"/></svg><svg fill="none" viewBox="0 0 20 20" id="pinterest" xmlns="http://www.w3.org/2000/svg"><path d="M10 1a9 9 0 00-3.28 17.381c-.077-.713-.151-1.803.032-2.58l1.054-4.472s-.27-.538-.27-1.336c0-1.252.724-2.187 1.627-2.187.767 0 1.14.577 1.14 1.27 0 .773-.493 1.926-.746 2.995-.21.896.45 1.627 1.333 1.627 1.6 0 2.83-1.687 2.83-4.12 0-2.155-1.547-3.663-3.758-3.663-2.56 0-4.065 1.92-4.065 3.906 0 .773.3 1.603.672 2.053a.27.27 0 01.063.256c-.067.285-.221.897-.25 1.02-.038.165-.13.2-.302.12-1.125-.524-1.828-2.166-1.828-3.488 0-2.84 2.064-5.446 5.945-5.446 3.122 0 5.548 2.226 5.548 5.2 0 3.1-1.955 5.597-4.669 5.597-.91 0-1.768-.475-2.064-1.034l-.559 2.141c-.204.78-.752 1.762-1.118 2.36.844.26 1.737.4 2.665.4a9 9 0 009-9 9 9 0 00-9-9z" fill="#211E1D"/></svg><svg fill="none" viewBox="0 0 27 14" id="rigth" xmlns="http://www.w3.org/2000/svg"><path d="M0 7h26m0 0l-6.303-6M26 7l-6.303 6" stroke="#211E1D"/></svg><svg fill="none" viewBox="0 0 17 14" id="twitter" xmlns="http://www.w3.org/2000/svg"><path d="M5.348 14c6.413 0 9.922-5.387 9.922-10.057 0-.151-.003-.306-.01-.457A7.138 7.138 0 0017 1.656a6.805 6.805 0 01-2.002.555A3.546 3.546 0 0016.532.256a6.954 6.954 0 01-2.214.858 3.478 3.478 0 00-1.98-1.067 3.452 3.452 0 00-2.21.371 3.52 3.52 0 00-1.533 1.658 3.584 3.584 0 00-.223 2.261 9.803 9.803 0 01-3.98-1.071A9.932 9.932 0 011.185.646a3.58 3.58 0 00-.381 2.575 3.54 3.54 0 001.46 2.142 3.456 3.456 0 01-1.58-.44v.043c0 .817.278 1.608.788 2.24a3.479 3.479 0 002.01 1.227 3.422 3.422 0 01-1.573.06 3.54 3.54 0 001.24 1.757 3.47 3.47 0 002.016.7A6.936 6.936 0 010 12.412 9.799 9.799 0 005.348 14z" fill="#211E1D"/></svg></svg>