<svg width="17" height="14" fill="none" xmlns="http://www.w3.org/2000/svg"><path d="M5.348 14c6.413 0 9.922-5.387 9.922-10.057 0-.151-.003-.306-.01-.457A7.138 7.138 0 0017 1.656a6.805 6.805 0 01-2.002.555A3.546 3.546 0 0016.532.256a6.954 6.954 0 01-2.214.858 3.478 3.478 0 00-1.98-1.067 3.452 3.452 0 00-2.21.371 3.52 3.52 0 00-1.533 1.658 3.584 3.584 0 00-.223 2.261 9.803 9.803 0 01-3.98-1.071A9.932 9.932 0 011.185.646a3.58 3.58 0 00-.381 2.575 3.54 3.54 0 001.46 2.142 3.456 3.456 0 01-1.58-.44v.043c0 .817.278 1.608.788 2.24a3.479 3.479 0 002.01 1.227 3.422 3.422 0 01-1.573.06 3.54 3.54 0 001.24 1.757 3.47 3.47 0 002.016.7A6.936 6.936 0 010 12.412 9.799 9.799 0 005.348 14z" fill="#211E1D"/></svg>